<?xml version="1.0" encoding="UTF-8"?>
<!DOCTYPE svg PUBLIC "-//W3C//DTD SVG 1.1//EN" "http://www.w3.org/Graphics/SVG/1.1/DTD/svg11.dtd">
<svg xmlns="http://www.w3.org/2000/svg" version="1.1" width="192px" height="192px" style="shape-rendering:geometricPrecision; text-rendering:geometricPrecision; image-rendering:optimizeQuality; fill-rule:evenodd; clip-rule:evenodd" xmlns:xlink="http://www.w3.org/1999/xlink">
<g><path style="opacity:1" fill="#211d03" d="M -0.5,-0.5 C 11.8333,-0.5 24.1667,-0.5 36.5,-0.5C 31.3865,1.19549 26.0532,2.52882 20.5,3.5C 19.3527,3.81777 18.5194,4.48444 18,5.5C 17.2825,4.54943 16.4491,4.38277 15.5,5C 17.3734,6.70383 19.0401,8.53717 20.5,10.5C 21.5932,12.5673 21.0932,13.234 19,12.5C 15.5362,14.5465 11.8695,16.2132 8,17.5C 7.66667,17.1667 7.33333,16.8333 7,16.5C 3.89849,20.5709 2.06516,20.2376 1.5,15.5C 1.62068,14.1055 1.95401,12.7722 2.5,11.5C 1.76662,10.913 0.766616,10.913 -0.5,11.5C -0.5,7.5 -0.5,3.5 -0.5,-0.5 Z"/></g>
<g><path style="opacity:1" fill="#242303" d="M 36.5,-0.5 C 88.1667,-0.5 139.833,-0.5 191.5,-0.5C 191.5,4.83333 191.5,10.1667 191.5,15.5C 182.338,13.4989 174.671,10.9989 168.5,8C 169.888,7.11066 169.722,6.61066 168,6.5C 167.127,6.73546 166.293,7.0688 165.5,7.5C 165.511,6.55855 165.011,5.89188 164,5.5C 162.535,6.32954 161.035,6.49621 159.5,6C 159.833,5.66667 160.167,5.33333 160.5,5C 158.765,4.34862 157.098,4.51529 155.5,5.5C 154.304,5.15431 154.304,4.65431 155.5,4C 154.667,3.83333 153.833,3.66667 153,3.5C 148.619,4.49254 144.285,4.1592 140,2.5C 139.228,2.6448 138.561,2.97814 138,3.5C 131.726,2.59129 125.226,1.59129 118.5,0.5C 106.669,0.512193 94.8354,0.512193 83,0.5C 76.2964,2.00367 69.6298,3.00367 63,3.5C 62.6667,3.16667 62.3333,2.83333 62,2.5C 60,3.16667 58,3.83333 56,4.5C 53.4967,4.73679 50.83,4.40346 48,3.5C 47.1667,3.66667 46.3333,3.83333 45.5,4C 46.6956,4.65431 46.6956,5.15431 45.5,5.5C 43.2076,3.97561 41.2076,4.30894 39.5,6.5C 37.5539,4.91302 36.0539,5.24635 35,7.5C 33.2859,6.0745 31.9525,6.40783 31,8.5C 29.9505,7.48288 28.7839,7.31621 27.5,8C 28.4506,8.71752 28.6172,9.55085 28,10.5C 26.1962,8.0185 24.6962,8.0185 23.5,10.5C 22.5,10.5 21.5,10.5 20.5,10.5C 19.0401,8.53717 17.3734,6.70383 15.5,5C 16.4491,4.38277 17.2825,4.54943 18,5.5C 18.5194,4.48444 19.3527,3.81777 20.5,3.5C 26.0532,2.52882 31.3865,1.19549 36.5,-0.5 Z"/></g>
<g><path style="opacity:1" fill="#292703" d="M 191.5,15.5 C 191.5,17.8333 191.5,20.1667 191.5,22.5C 190.883,22.6107 190.383,22.944 190,23.5C 185.747,21.9187 181.58,20.252 177.5,18.5C 175.732,16.4922 174.066,14.3256 172.5,12C 171.5,11.6667 170.5,11.3333 169.5,11C 165.105,10.8599 160.771,11.3599 156.5,12.5C 151.902,11.3859 147.235,10.0526 142.5,8.5C 140.626,8.38977 139.126,9.05644 138,10.5C 136.82,9.31594 135.32,8.64927 133.5,8.5C 122.575,6.72623 111.575,5.72623 100.5,5.5C 94.0916,5.52293 87.9249,6.1896 82,7.5C 81.6924,6.69194 81.1924,6.02527 80.5,5.5C 76.9474,5.88655 73.6141,6.88655 70.5,8.5C 69.8076,7.97473 69.3076,7.30806 69,6.5C 66.3713,6.92782 64.038,7.92782 62,9.5C 60.9383,8.90316 59.7716,8.56983 58.5,8.5C 50.9491,10.7594 43.2825,12.5928 35.5,14C 35.8333,14.3333 36.1667,14.6667 36.5,15C 33.9602,16.1112 31.4602,16.2778 29,15.5C 27.9895,15.8919 27.4895,16.5585 27.5,17.5C 26.8333,17.1667 26.1667,16.8333 25.5,16.5C 24.1446,19.2109 22.8112,21.8776 21.5,24.5C 19.8784,25.1224 18.5451,26.1224 17.5,27.5C 11.3045,27.2884 5.30451,27.2884 -0.5,27.5C -0.5,24.8333 -0.5,22.1667 -0.5,19.5C 1.38379,20.3816 2.71712,21.8816 3.5,24C 5.69543,25.373 8.02877,25.7063 10.5,25C 9.83333,24.6667 9.16667,24.3333 8.5,24C 12.1366,23.2322 15.6366,22.0656 19,20.5C 19.772,20.6448 20.4387,20.9781 21,21.5C 22.0569,19.7806 22.8903,17.9472 23.5,16C 22.2475,14.1722 22.2475,12.3388 23.5,10.5C 24.6962,8.0185 26.1962,8.0185 28,10.5C 28.6172,9.55085 28.4506,8.71752 27.5,8C 28.7839,7.31621 29.9505,7.48288 31,8.5C 31.9525,6.40783 33.2859,6.0745 35,7.5C 36.0539,5.24635 37.5539,4.91302 39.5,6.5C 41.2076,4.30894 43.2076,3.97561 45.5,5.5C 46.6956,5.15431 46.6956,4.65431 45.5,4C 46.3333,3.83333 47.1667,3.66667 48,3.5C 50.83,4.40346 53.4967,4.73679 56,4.5C 58,3.83333 60,3.16667 62,2.5C 62.3333,2.83333 62.6667,3.16667 63,3.5C 69.6298,3.00367 76.2964,2.00367 83,0.5C 94.8354,0.512193 106.669,0.512193 118.5,0.5C 125.226,1.59129 131.726,2.59129 138,3.5C 138.561,2.97814 139.228,2.6448 140,2.5C 144.285,4.1592 148.619,4.49254 153,3.5C 153.833,3.66667 154.667,3.83333 155.5,4C 154.304,4.65431 154.304,5.15431 155.5,5.5C 157.098,4.51529 158.765,4.34862 160.5,5C 160.167,5.33333 159.833,5.66667 159.5,6C 161.035,6.49621 162.535,6.32954 164,5.5C 165.011,5.89188 165.511,6.55855 165.5,7.5C 166.293,7.0688 167.127,6.73546 168,6.5C 169.722,6.61066 169.888,7.11066 168.5,8C 174.671,10.9989 182.338,13.4989 191.5,15.5 Z"/></g>
<g><path style="opacity:1" fill="#2e2d02" d="M 156.5,12.5 C 157.067,14.698 157.067,17.0314 156.5,19.5C 155.185,17.4008 153.518,17.0674 151.5,18.5C 150.25,18.5774 149.417,19.244 149,20.5C 147.665,18.3952 145.998,17.7286 144,18.5C 142,17.8333 140,17.1667 138,16.5C 137.667,16.8333 137.333,17.1667 137,17.5C 130.438,16.4035 123.605,15.4035 116.5,14.5C 115.5,14.6667 114.5,14.8333 113.5,15C 114.823,15.8159 115.489,16.9826 115.5,18.5C 110.123,13.2098 103.623,11.2098 96,12.5C 87.1251,12.8629 78.2918,13.6963 69.5,15C 66.9698,15.8911 64.6365,17.0578 62.5,18.5C 60.7116,17.3775 58.7116,17.2109 56.5,18C 54.5975,18.1992 53.0975,19.0325 52,20.5C 49.2803,19.689 46.7803,19.689 44.5,20.5C 42.5518,22.5388 40.3852,22.5388 38,20.5C 33.8345,23.4992 29.3345,25.8326 24.5,27.5C 23.1667,26.8333 22.1667,25.8333 21.5,24.5C 22.8112,21.8776 24.1446,19.2109 25.5,16.5C 26.1667,16.8333 26.8333,17.1667 27.5,17.5C 27.4895,16.5585 27.9895,15.8919 29,15.5C 31.4602,16.2778 33.9602,16.1112 36.5,15C 36.1667,14.6667 35.8333,14.3333 35.5,14C 43.2825,12.5928 50.9491,10.7594 58.5,8.5C 59.7716,8.56983 60.9383,8.90316 62,9.5C 64.038,7.92782 66.3713,6.92782 69,6.5C 69.3076,7.30806 69.8076,7.97473 70.5,8.5C 73.6141,6.88655 76.9474,5.88655 80.5,5.5C 81.1924,6.02527 81.6924,6.69194 82,7.5C 87.9249,6.1896 94.0916,5.52293 100.5,5.5C 111.575,5.72623 122.575,6.72623 133.5,8.5C 135.32,8.64927 136.82,9.31594 138,10.5C 139.126,9.05644 140.626,8.38977 142.5,8.5C 147.235,10.0526 151.902,11.3859 156.5,12.5 Z"/></g>
<g><path style="opacity:1" fill="#282204" d="M 20.5,10.5 C 21.5,10.5 22.5,10.5 23.5,10.5C 22.2475,12.3388 22.2475,14.1722 23.5,16C 22.8903,17.9472 22.0569,19.7806 21,21.5C 20.4387,20.9781 19.772,20.6448 19,20.5C 15.6366,22.0656 12.1366,23.2322 8.5,24C 9.16667,24.3333 9.83333,24.6667 10.5,25C 8.02877,25.7063 5.69543,25.373 3.5,24C 2.71712,21.8816 1.38379,20.3816 -0.5,19.5C -0.5,16.8333 -0.5,14.1667 -0.5,11.5C 0.766616,10.913 1.76662,10.913 2.5,11.5C 1.95401,12.7722 1.62068,14.1055 1.5,15.5C 2.06516,20.2376 3.89849,20.5709 7,16.5C 7.33333,16.8333 7.66667,17.1667 8,17.5C 11.8695,16.2132 15.5362,14.5465 19,12.5C 21.0932,13.234 21.5932,12.5673 20.5,10.5 Z"/></g>
<g><path style="opacity:1" fill="#1d1d00" d="M 115.5,18.5 C 116.338,18.8417 116.672,19.5084 116.5,20.5C 104.541,22.3174 92.2074,23.1507 79.5,23C 79,23.5 78.5,24 78,24.5C 74.4347,22.9465 71.1014,23.2799 68,25.5C 65.4082,24.0183 63.0749,24.3517 61,26.5C 60.0494,26.1164 59.2161,25.7831 58.5,25.5C 59.063,22.7052 60.3963,20.3718 62.5,18.5C 64.6365,17.0578 66.9698,15.8911 69.5,15C 78.2918,13.6963 87.1251,12.8629 96,12.5C 103.623,11.2098 110.123,13.2098 115.5,18.5 Z"/></g>
<g><path style="opacity:1" fill="#2e2705" d="M 177.5,18.5 C 178.092,21.6405 177.092,23.9739 174.5,25.5C 173.137,24.8016 171.971,24.8016 171,25.5C 169.212,24.6422 167.378,23.6422 165.5,22.5C 164.914,22.7093 164.414,23.0426 164,23.5C 162.604,21.4732 160.938,21.1398 159,22.5C 157.583,21.9221 156.75,20.9221 156.5,19.5C 157.067,17.0314 157.067,14.698 156.5,12.5C 160.771,11.3599 165.105,10.8599 169.5,11C 170.5,11.3333 171.5,11.6667 172.5,12C 174.066,14.3256 175.732,16.4922 177.5,18.5 Z"/></g>
<g><path style="opacity:1" fill="#353402" d="M 151.5,18.5 C 154.149,20.447 155.816,23.1137 156.5,26.5C 153.995,27.1081 151.661,26.4414 149.5,24.5C 148.558,24.6082 147.725,24.9415 147,25.5C 145.604,23.4732 143.938,23.1398 142,24.5C 140.687,23.4272 139.187,22.7605 137.5,22.5C 133.486,21.6382 129.32,21.6382 125,22.5C 122.607,19.9588 120.44,19.9588 118.5,22.5C 117.833,21.8333 117.167,21.1667 116.5,20.5C 116.672,19.5084 116.338,18.8417 115.5,18.5C 115.489,16.9826 114.823,15.8159 113.5,15C 114.5,14.8333 115.5,14.6667 116.5,14.5C 123.605,15.4035 130.438,16.4035 137,17.5C 137.333,17.1667 137.667,16.8333 138,16.5C 140,17.1667 142,17.8333 144,18.5C 145.998,17.7286 147.665,18.3952 149,20.5C 149.417,19.244 150.25,18.5774 151.5,18.5 Z"/></g>
<g><path style="opacity:1" fill="#353402" d="M 62.5,18.5 C 60.3963,20.3718 59.063,22.7052 58.5,25.5C 57.5233,28.2869 57.19,31.2869 57.5,34.5C 57.1667,34.5 56.8333,34.5 56.5,34.5C 56.5,33.8333 56.5,33.1667 56.5,32.5C 56.6633,30.1432 56.4966,27.8098 56,25.5C 52.8943,27.6896 49.8943,27.6896 47,25.5C 44.5495,26.421 42.0495,27.421 39.5,28.5C 37.8437,26.9776 36.677,27.311 36,29.5C 35.586,29.0426 35.086,28.7093 34.5,28.5C 33.6667,29.5 32.8333,30.5 32,31.5C 30.687,30.7129 29.5203,31.0462 28.5,32.5C 28.1667,32.5 27.8333,32.5 27.5,32.5C 26.2485,30.9991 25.2485,29.3325 24.5,27.5C 29.3345,25.8326 33.8345,23.4992 38,20.5C 40.3852,22.5388 42.5518,22.5388 44.5,20.5C 46.7803,19.689 49.2803,19.689 52,20.5C 53.0975,19.0325 54.5975,18.1992 56.5,18C 58.7116,17.2109 60.7116,17.3775 62.5,18.5 Z"/></g>
<g><path style="opacity:1" fill="#332e04" d="M 156.5,19.5 C 156.75,20.9221 157.583,21.9221 159,22.5C 160.938,21.1398 162.604,21.4732 164,23.5C 164.414,23.0426 164.914,22.7093 165.5,22.5C 167.378,23.6422 169.212,24.6422 171,25.5C 171.971,24.8016 173.137,24.8016 174.5,25.5C 177.092,23.9739 178.092,21.6405 177.5,18.5C 181.58,20.252 185.747,21.9187 190,23.5C 190.383,22.944 190.883,22.6107 191.5,22.5C 191.5,25.5 191.5,28.5 191.5,31.5C 189.951,31.7358 188.451,31.7358 187,31.5C 186.626,30.5838 186.126,29.7504 185.5,29C 182.724,28.5845 180.057,27.7512 177.5,26.5C 175.341,28.9947 172.674,30.6614 169.5,31.5C 167.895,30.5697 166.395,30.5697 165,31.5C 163.796,30.5294 163.296,29.5294 163.5,28.5C 162.261,28.9424 161.261,29.6091 160.5,30.5C 159.5,29.8333 158.5,29.1667 157.5,28.5C 157.672,27.5084 157.338,26.8417 156.5,26.5C 155.816,23.1137 154.149,20.447 151.5,18.5C 153.518,17.0674 155.185,17.4008 156.5,19.5 Z"/></g>
<g><path style="opacity:1" fill="#222200" d="M 116.5,20.5 C 117.167,21.1667 117.833,21.8333 118.5,22.5C 118.5,23.1667 118.5,23.8333 118.5,24.5C 118.5,26.5 118.5,28.5 118.5,30.5C 114.563,30.2065 110.73,30.5399 107,31.5C 103,28.8333 99,28.8333 95,31.5C 89.5838,30.3611 84.0838,30.1944 78.5,31C 78,31.5 77.5,32 77,32.5C 73.76,30.9637 70.76,31.297 68,33.5C 65.7328,32.0652 63.7328,32.3985 62,34.5C 60.5098,33.2721 59.0098,33.2721 57.5,34.5C 57.19,31.2869 57.5233,28.2869 58.5,25.5C 59.2161,25.7831 60.0494,26.1164 61,26.5C 63.0749,24.3517 65.4082,24.0183 68,25.5C 71.1014,23.2799 74.4347,22.9465 78,24.5C 78.5,24 79,23.5 79.5,23C 92.2074,23.1507 104.541,22.3174 116.5,20.5 Z"/></g>
<g><path style="opacity:1" fill="#3b3903" d="M 156.5,26.5 C 157.338,26.8417 157.672,27.5084 157.5,28.5C 154.991,29.9213 152.657,31.5879 150.5,33.5C 149.362,30.7325 147.528,30.0659 145,31.5C 143.934,29.9005 142.434,28.9005 140.5,28.5C 139.808,29.0253 139.308,29.6919 139,30.5C 137.412,28.1919 135.412,27.5252 133,28.5C 128.45,27.008 123.95,26.3413 119.5,26.5C 119.672,25.5084 119.338,24.8417 118.5,24.5C 118.5,23.8333 118.5,23.1667 118.5,22.5C 120.44,19.9588 122.607,19.9588 125,22.5C 129.32,21.6382 133.486,21.6382 137.5,22.5C 139.187,22.7605 140.687,23.4272 142,24.5C 143.938,23.1398 145.604,23.4732 147,25.5C 147.725,24.9415 148.558,24.6082 149.5,24.5C 151.661,26.4414 153.995,27.1081 156.5,26.5 Z"/></g>
<g><path style="opacity:1" fill="#3b3903" d="M 56.5,32.5 C 54.7704,29.8922 52.937,29.8922 51,32.5C 48.6446,31.8686 46.478,31.8686 44.5,32.5C 43.2027,34.3668 41.7027,34.7002 40,33.5C 37.4398,34.53 34.9398,35.6966 32.5,37C 33.2524,37.6708 33.5858,38.5041 33.5,39.5C 31.4776,37.4687 29.8109,35.1354 28.5,32.5C 29.5203,31.0462 30.687,30.7129 32,31.5C 32.8333,30.5 33.6667,29.5 34.5,28.5C 35.086,28.7093 35.586,29.0426 36,29.5C 36.677,27.311 37.8437,26.9776 39.5,28.5C 42.0495,27.421 44.5495,26.421 47,25.5C 49.8943,27.6896 52.8943,27.6896 56,25.5C 56.4966,27.8098 56.6633,30.1432 56.5,32.5 Z"/></g>
<g><path style="opacity:1" fill="#282800" d="M 118.5,24.5 C 119.338,24.8417 119.672,25.5084 119.5,26.5C 119.5,27.8333 119.5,29.1667 119.5,30.5C 128.847,29.5082 136.18,32.8415 141.5,40.5C 141.44,41.0431 141.107,41.3764 140.5,41.5C 137.332,40.8716 134.332,39.8716 131.5,38.5C 130.287,38.7472 129.62,39.4138 129.5,40.5C 129.167,40.5 128.833,40.5 128.5,40.5C 128.389,39.8826 128.056,39.3826 127.5,39C 113.943,36.6464 100.276,35.9797 86.5,37C 85.5838,37.3742 84.7504,37.8742 84,38.5C 79.1819,37.6206 74.5153,37.6206 70,38.5C 65.385,40.2923 60.5517,41.459 55.5,42C 56.8333,42.3333 58.1667,42.6667 59.5,43C 53.1657,42.1665 47.1657,43.3332 41.5,46.5C 40.8165,46.1373 40.1499,45.8039 39.5,45.5C 40.9274,42.2364 43.2608,39.7364 46.5,38C 49.8502,36.5137 53.1835,35.347 56.5,34.5C 56.8333,34.5 57.1667,34.5 57.5,34.5C 59.0098,33.2721 60.5098,33.2721 62,34.5C 63.7328,32.3985 65.7328,32.0652 68,33.5C 70.76,31.297 73.76,30.9637 77,32.5C 77.5,32 78,31.5 78.5,31C 84.0838,30.1944 89.5838,30.3611 95,31.5C 99,28.8333 103,28.8333 107,31.5C 110.73,30.5399 114.563,30.2065 118.5,30.5C 118.5,28.5 118.5,26.5 118.5,24.5 Z"/></g>
<g><path style="opacity:1" fill="#1d1d00" d="M 21.5,24.5 C 22.1667,25.8333 23.1667,26.8333 24.5,27.5C 25.2485,29.3325 26.2485,30.9991 27.5,32.5C 27.3404,34.153 26.6737,35.4863 25.5,36.5C 24.1667,35.5 22.8333,34.5 21.5,33.5C 20.5589,31.2279 19.2255,29.2279 17.5,27.5C 18.5451,26.1224 19.8784,25.1224 21.5,24.5 Z"/></g>
<g><path style="opacity:1" fill="#363403" d="M 191.5,31.5 C 191.5,33.5 191.5,35.5 191.5,37.5C 190.175,38.9526 189.342,38.6192 189,36.5C 188.667,36.8333 188.333,37.1667 188,37.5C 186.47,36.364 185.137,35.364 184,34.5C 183.667,34.8333 183.333,35.1667 183,35.5C 180.91,34.2065 178.91,33.2065 177,32.5C 175.853,33.4581 174.853,33.1247 174,31.5C 173.311,32.3567 172.478,33.0233 171.5,33.5C 168.022,33.1007 164.355,32.7674 160.5,32.5C 160.5,31.8333 160.5,31.1667 160.5,30.5C 161.261,29.6091 162.261,28.9424 163.5,28.5C 163.296,29.5294 163.796,30.5294 165,31.5C 166.395,30.5697 167.895,30.5697 169.5,31.5C 172.674,30.6614 175.341,28.9947 177.5,26.5C 180.057,27.7512 182.724,28.5845 185.5,29C 186.126,29.7504 186.626,30.5838 187,31.5C 188.451,31.7358 189.951,31.7358 191.5,31.5 Z"/></g>
<g><path style="opacity:1" fill="#343202" d="M 17.5,27.5 C 19.2255,29.2279 20.5589,31.2279 21.5,33.5C 18.1586,35.301 14.6586,36.9677 11,38.5C 9.28355,37.4477 8.28355,38.1144 8,40.5C 7.02552,38.1224 6.35886,38.4557 6,41.5C 5.66667,41.1667 5.33333,40.8333 5,40.5C 3.39976,42.5814 1.56643,43.2481 -0.5,42.5C -0.5,37.5 -0.5,32.5 -0.5,27.5C 5.30451,27.2884 11.3045,27.2884 17.5,27.5 Z"/></g>
<g><path style="opacity:1" fill="#403f03" d="M 119.5,26.5 C 123.95,26.3413 128.45,27.008 133,28.5C 135.412,27.5252 137.412,28.1919 139,30.5C 139.308,29.6919 139.808,29.0253 140.5,28.5C 142.434,28.9005 143.934,29.9005 145,31.5C 147.528,30.0659 149.362,30.7325 150.5,33.5C 148.5,35.5 146.5,37.5 144.5,39.5C 143.391,39.5569 142.391,39.8902 141.5,40.5C 136.18,32.8415 128.847,29.5082 119.5,30.5C 119.5,29.1667 119.5,27.8333 119.5,26.5 Z"/></g>
<g><path style="opacity:1" fill="#403f03" d="M 56.5,32.5 C 56.5,33.1667 56.5,33.8333 56.5,34.5C 53.1835,35.347 49.8502,36.5137 46.5,38C 43.2608,39.7364 40.9274,42.2364 39.5,45.5C 39.1667,45.5 38.8333,45.5 38.5,45.5C 36.863,43.5248 35.1964,41.5248 33.5,39.5C 33.5858,38.5041 33.2524,37.6708 32.5,37C 34.9398,35.6966 37.4398,34.53 40,33.5C 41.7027,34.7002 43.2027,34.3668 44.5,32.5C 46.478,31.8686 48.6446,31.8686 51,32.5C 52.937,29.8922 54.7704,29.8922 56.5,32.5 Z"/></g>
<g><path style="opacity:1" fill="#3c3b03" d="M 191.5,37.5 C 191.5,40.8333 191.5,44.1667 191.5,47.5C 184.726,44.8017 178.059,41.8017 171.5,38.5C 170.094,39.6682 168.928,39.3348 168,37.5C 166.667,37.5 165.333,37.5 164,37.5C 163.333,36.8333 162.667,36.1667 162,35.5C 160.058,36.5159 157.891,36.8493 155.5,36.5C 156.945,34.9373 158.611,33.604 160.5,32.5C 164.355,32.7674 168.022,33.1007 171.5,33.5C 172.478,33.0233 173.311,32.3567 174,31.5C 174.853,33.1247 175.853,33.4581 177,32.5C 178.91,33.2065 180.91,34.2065 183,35.5C 183.333,35.1667 183.667,34.8333 184,34.5C 185.137,35.364 186.47,36.364 188,37.5C 188.333,37.1667 188.667,36.8333 189,36.5C 189.342,38.6192 190.175,38.9526 191.5,37.5 Z"/></g>
<g><path style="opacity:1" fill="#3c3a03" d="M 21.5,33.5 C 22.8333,34.5 24.1667,35.5 25.5,36.5C 26.4151,38.7541 27.7484,40.7541 29.5,42.5C 27.9826,42.4894 26.8159,41.8228 26,40.5C 17.3766,44.215 8.5433,48.215 -0.5,52.5C -0.5,49.1667 -0.5,45.8333 -0.5,42.5C 1.56643,43.2481 3.39976,42.5814 5,40.5C 5.33333,40.8333 5.66667,41.1667 6,41.5C 6.35886,38.4557 7.02552,38.1224 8,40.5C 8.28355,38.1144 9.28355,37.4477 11,38.5C 14.6586,36.9677 18.1586,35.301 21.5,33.5 Z"/></g>
<g><path style="opacity:1" fill="#272700" d="M 157.5,28.5 C 158.5,29.1667 159.5,29.8333 160.5,30.5C 160.5,31.1667 160.5,31.8333 160.5,32.5C 158.611,33.604 156.945,34.9373 155.5,36.5C 154.167,37.1667 153.167,38.1667 152.5,39.5C 150.246,40.1237 148.579,41.457 147.5,43.5C 146.833,43.5 146.167,43.5 145.5,43.5C 145.844,42.3172 145.178,41.4839 143.5,41C 144.056,40.6174 144.389,40.1174 144.5,39.5C 146.5,37.5 148.5,35.5 150.5,33.5C 152.657,31.5879 154.991,29.9213 157.5,28.5 Z"/></g>
<g><path style="opacity:1" fill="#434103" d="M 191.5,47.5 C 191.5,49.8333 191.5,52.1667 191.5,54.5C 188.029,53.7998 186.029,51.7998 185.5,48.5C 182.194,50.109 179.361,49.4424 177,46.5C 175.667,46.5 174.333,46.5 173,46.5C 172.395,44.5188 171.395,44.1854 170,45.5C 169.147,43.8753 168.147,43.5419 167,44.5C 166.333,43.8333 165.667,43.1667 165,42.5C 163,42.5 161,42.5 159,42.5C 156.938,41.9991 154.771,40.9991 152.5,39.5C 153.167,38.1667 154.167,37.1667 155.5,36.5C 157.891,36.8493 160.058,36.5159 162,35.5C 162.667,36.1667 163.333,36.8333 164,37.5C 165.333,37.5 166.667,37.5 168,37.5C 168.928,39.3348 170.094,39.6682 171.5,38.5C 178.059,41.8017 184.726,44.8017 191.5,47.5 Z"/></g>
<g><path style="opacity:1" fill="#2e2e00" d="M 128.5,40.5 C 121.221,37.9972 115.221,39.6639 110.5,45.5C 102.215,44.3941 93.8815,44.2274 85.5,45C 79.561,45.0841 73.8943,45.9175 68.5,47.5C 67.0779,47.2504 66.0779,46.417 65.5,45C 55.8739,42.0517 48.8739,44.8851 44.5,53.5C 42.4527,53.7493 40.1194,54.2493 37.5,55C 36.9011,56.6225 36.2344,58.1225 35.5,59.5C 35.8128,55.9581 35.4794,52.6248 34.5,49.5C 34.5,49.1667 34.5,48.8333 34.5,48.5C 35.8717,47.4884 37.205,46.4884 38.5,45.5C 38.8333,45.5 39.1667,45.5 39.5,45.5C 40.1499,45.8039 40.8165,46.1373 41.5,46.5C 47.1657,43.3332 53.1657,42.1665 59.5,43C 58.1667,42.6667 56.8333,42.3333 55.5,42C 60.5517,41.459 65.385,40.2923 70,38.5C 74.5153,37.6206 79.1819,37.6206 84,38.5C 84.7504,37.8742 85.5838,37.3742 86.5,37C 100.276,35.9797 113.943,36.6464 127.5,39C 128.056,39.3826 128.389,39.8826 128.5,40.5 Z"/></g>
<g><path style="opacity:1" fill="#2e2e00" d="M 141.5,40.5 C 142.391,39.8902 143.391,39.5569 144.5,39.5C 144.389,40.1174 144.056,40.6174 143.5,41C 145.178,41.4839 145.844,42.3172 145.5,43.5C 145.5,43.8333 145.5,44.1667 145.5,44.5C 144.698,45.9516 144.198,47.6183 144,49.5C 142.163,49.3346 140.163,48.668 138,47.5C 137.722,48.4158 137.222,49.0825 136.5,49.5C 136.672,48.5084 136.338,47.8417 135.5,47.5C 134.213,44.5468 132.213,42.2135 129.5,40.5C 129.62,39.4138 130.287,38.7472 131.5,38.5C 134.332,39.8716 137.332,40.8716 140.5,41.5C 141.107,41.3764 141.44,41.0431 141.5,40.5 Z"/></g>
<g><path style="opacity:1" fill="#494703" d="M 152.5,39.5 C 154.771,40.9991 156.938,41.9991 159,42.5C 161,42.5 163,42.5 165,42.5C 165.667,43.1667 166.333,43.8333 167,44.5C 168.147,43.5419 169.147,43.8753 170,45.5C 171.395,44.1854 172.395,44.5188 173,46.5C 174.333,46.5 175.667,46.5 177,46.5C 179.361,49.4424 182.194,50.109 185.5,48.5C 186.029,51.7998 188.029,53.7998 191.5,54.5C 191.5,56.1667 191.5,57.8333 191.5,59.5C 183.446,56.1635 175.113,52.6635 166.5,49C 160.16,47.1617 153.827,45.3283 147.5,43.5C 148.579,41.457 150.246,40.1237 152.5,39.5 Z"/></g>
<g><path style="opacity:1" fill="#434103" d="M 29.5,42.5 C 29.8333,43.1667 30.1667,43.8333 30.5,44.5C 27.0867,46.543 23.4201,48.2096 19.5,49.5C 18.2638,48.7542 16.9305,48.4208 15.5,48.5C 15.67,49.8221 15.3366,50.9887 14.5,52C 9.20919,53.3113 4.20919,55.8113 -0.5,59.5C -0.5,57.1667 -0.5,54.8333 -0.5,52.5C 8.5433,48.215 17.3766,44.215 26,40.5C 26.8159,41.8228 27.9826,42.4894 29.5,42.5 Z"/></g>
<g><path style="opacity:1" fill="#272700" d="M 27.5,32.5 C 27.8333,32.5 28.1667,32.5 28.5,32.5C 29.8109,35.1354 31.4776,37.4687 33.5,39.5C 35.1964,41.5248 36.863,43.5248 38.5,45.5C 37.205,46.4884 35.8717,47.4884 34.5,48.5C 33.5,46.8333 32.1667,45.5 30.5,44.5C 30.1667,43.8333 29.8333,43.1667 29.5,42.5C 27.7484,40.7541 26.4151,38.7541 25.5,36.5C 26.6737,35.4863 27.3404,34.153 27.5,32.5 Z"/></g>
<g><path style="opacity:1" fill="#404a07" d="M 128.5,40.5 C 128.833,40.5 129.167,40.5 129.5,40.5C 132.213,42.2135 134.213,44.5468 135.5,47.5C 135.5,48.1667 135.5,48.8333 135.5,49.5C 133.766,50.562 132.099,50.562 130.5,49.5C 125.603,44.5608 120.27,44.2274 114.5,48.5C 112.901,47.438 111.234,47.438 109.5,48.5C 109.557,47.391 109.89,46.391 110.5,45.5C 115.221,39.6639 121.221,37.9972 128.5,40.5 Z"/></g>
<g><path style="opacity:1" fill="#4e4d03" d="M 145.5,43.5 C 146.167,43.5 146.833,43.5 147.5,43.5C 153.827,45.3283 160.16,47.1617 166.5,49C 175.113,52.6635 183.446,56.1635 191.5,59.5C 191.5,61.1667 191.5,62.8333 191.5,64.5C 190.883,64.6107 190.383,64.944 190,65.5C 187.116,63.7316 184.449,61.7316 182,59.5C 181.667,60.1667 181.333,60.8333 181,61.5C 178.381,59.0172 175.381,57.0172 172,55.5C 171.667,55.8333 171.333,56.1667 171,56.5C 168.333,55.1667 165.667,53.8333 163,52.5C 161.192,52.8881 159.525,52.8881 158,52.5C 156.169,50.1455 154.003,48.8121 151.5,48.5C 149.997,49.0522 148.331,49.0522 146.5,48.5C 146.5,49.8333 146.5,51.1667 146.5,52.5C 146.5,54.1667 146.5,55.8333 146.5,57.5C 146.34,59.153 145.674,60.4863 144.5,61.5C 144.5,60.8333 144.5,60.1667 144.5,59.5C 145.392,54.5624 145.726,49.5624 145.5,44.5C 145.5,44.1667 145.5,43.8333 145.5,43.5 Z"/></g>
<g><path style="opacity:1" fill="#484703" d="M 30.5,44.5 C 32.1667,45.5 33.5,46.8333 34.5,48.5C 34.5,48.8333 34.5,49.1667 34.5,49.5C 33.0502,48.3424 32.0502,48.8424 31.5,51C 20.4986,54.3202 9.83195,59.1535 -0.5,65.5C -0.5,63.5 -0.5,61.5 -0.5,59.5C 4.20919,55.8113 9.20919,53.3113 14.5,52C 15.3366,50.9887 15.67,49.8221 15.5,48.5C 16.9305,48.4208 18.2638,48.7542 19.5,49.5C 23.4201,48.2096 27.0867,46.543 30.5,44.5 Z"/></g>
<g><path style="opacity:1" fill="#353500" d="M 110.5,45.5 C 109.89,46.391 109.557,47.391 109.5,48.5C 107.87,50.0261 107.037,52.0261 107,54.5C 103.936,53.2168 100.603,52.5501 97,52.5C 92.1648,52.3292 87.4981,52.9958 83,54.5C 80.0434,53.1862 77.21,53.5196 74.5,55.5C 73.7348,54.3881 72.7348,53.7214 71.5,53.5C 71.5,53.1667 71.5,52.8333 71.5,52.5C 70.2485,50.9991 69.2485,49.3325 68.5,47.5C 73.8943,45.9175 79.561,45.0841 85.5,45C 93.8815,44.2274 102.215,44.3941 110.5,45.5 Z"/></g>
<g><path style="opacity:1" fill="#414a07" d="M 68.5,47.5 C 69.2485,49.3325 70.2485,50.9991 71.5,52.5C 69.5,51.1667 67.5,51.1667 65.5,52.5C 59.5104,48.1658 54.1771,48.8325 49.5,54.5C 48.1196,55.7065 46.9529,55.3731 46,53.5C 45.8019,55.3817 45.3019,57.0484 44.5,58.5C 44.5,57.5 44.5,56.5 44.5,55.5C 44.5,54.8333 44.5,54.1667 44.5,53.5C 48.8739,44.8851 55.8739,42.0517 65.5,45C 66.0779,46.417 67.0779,47.2504 68.5,47.5 Z"/></g>
<g><path style="opacity:1" fill="#515203" d="M 130.5,49.5 C 131.494,51.3344 131.494,53.0011 130.5,54.5C 129.71,53.5987 128.71,52.9321 127.5,52.5C 125.814,49.9953 123.481,49.162 120.5,50C 118.845,51.4443 118.178,53.2776 118.5,55.5C 117.566,54.4324 117.232,53.099 117.5,51.5C 116.167,51.5 114.833,51.5 113.5,51.5C 113.557,50.391 113.89,49.391 114.5,48.5C 120.27,44.2274 125.603,44.5608 130.5,49.5 Z"/></g>
<g><path style="opacity:1" fill="#353500" d="M 145.5,44.5 C 145.726,49.5624 145.392,54.5624 144.5,59.5C 143.493,58.1716 142.16,57.1716 140.5,56.5C 139.575,57.6405 138.741,57.6405 138,56.5C 137.71,54.0796 137.21,51.7463 136.5,49.5C 137.222,49.0825 137.722,48.4158 138,47.5C 140.163,48.668 142.163,49.3346 144,49.5C 144.198,47.6183 144.698,45.9516 145.5,44.5 Z"/></g>
<g><path style="opacity:1" fill="#4e4c03" d="M 34.5,49.5 C 35.4794,52.6248 35.8128,55.9581 35.5,59.5C 35.5,60.8333 35.5,62.1667 35.5,63.5C 34.5489,62.0813 34.2155,60.4147 34.5,58.5C 34.6602,56.8008 34.4935,55.1341 34,53.5C 32.9698,55.7764 31.4698,56.4431 29.5,55.5C 27.7419,56.1279 26.2419,57.1279 25,58.5C 24.6667,58.1667 24.3333,57.8333 24,57.5C 22.4301,58.614 21.0968,59.9474 20,61.5C 19.6667,60.8333 19.3333,60.1667 19,59.5C 15.9121,62.9075 12.0788,65.0742 7.5,66C 4.57978,67.9461 1.91311,70.1128 -0.5,72.5C -0.5,70.1667 -0.5,67.8333 -0.5,65.5C 9.83195,59.1535 20.4986,54.3202 31.5,51C 32.0502,48.8424 33.0502,48.3424 34.5,49.5 Z"/></g>
<g><path style="opacity:1" fill="#545203" d="M 191.5,64.5 C 191.5,66.5 191.5,68.5 191.5,70.5C 190.883,70.6107 190.383,70.944 190,71.5C 188.482,69.652 186.649,68.152 184.5,67C 180.63,65.7132 176.964,64.0465 173.5,62C 164.171,58.8766 155.171,55.71 146.5,52.5C 146.5,51.1667 146.5,49.8333 146.5,48.5C 148.331,49.0522 149.997,49.0522 151.5,48.5C 154.003,48.8121 156.169,50.1455 158,52.5C 159.525,52.8881 161.192,52.8881 163,52.5C 165.667,53.8333 168.333,55.1667 171,56.5C 171.333,56.1667 171.667,55.8333 172,55.5C 175.381,57.0172 178.381,59.0172 181,61.5C 181.333,60.8333 181.667,60.1667 182,59.5C 184.449,61.7316 187.116,63.7316 190,65.5C 190.383,64.944 190.883,64.6107 191.5,64.5 Z"/></g>
<g><path style="opacity:1" fill="#515203" d="M 65.5,52.5 C 65.8333,53.1667 66.1667,53.8333 66.5,54.5C 65.1266,54.3433 63.7932,54.51 62.5,55C 63.8112,57.2735 63.8112,59.4402 62.5,61.5C 62.4682,54.5965 59.4682,52.9299 53.5,56.5C 52.2954,58.1376 50.9621,58.4709 49.5,57.5C 49.5,56.5 49.5,55.5 49.5,54.5C 54.1771,48.8325 59.5104,48.1658 65.5,52.5 Z"/></g>
<g><path style="opacity:1" fill="#3b3b00" d="M 109.5,48.5 C 108.676,51.7644 108.342,55.0977 108.5,58.5C 101.446,58.1313 94.2789,58.798 87,60.5C 85.769,59.8922 84.4357,59.5589 83,59.5C 80.1074,60.1991 77.2741,61.1991 74.5,62.5C 73.8302,60.7086 73.1635,59.0419 72.5,57.5C 72.5674,56.0413 72.2341,54.7079 71.5,53.5C 72.7348,53.7214 73.7348,54.3881 74.5,55.5C 77.21,53.5196 80.0434,53.1862 83,54.5C 87.4981,52.9958 92.1648,52.3292 97,52.5C 100.603,52.5501 103.936,53.2168 107,54.5C 107.037,52.0261 107.87,50.0261 109.5,48.5 Z"/></g>
<g><path style="opacity:1" fill="#353500" d="M 44.5,53.5 C 44.5,54.1667 44.5,54.8333 44.5,55.5C 43.6862,57.631 43.1862,59.9644 43,62.5C 40.688,62.5739 38.5213,63.5739 36.5,65.5C 36.6716,64.5084 36.3382,63.8417 35.5,63.5C 35.5,62.1667 35.5,60.8333 35.5,59.5C 36.2344,58.1225 36.9011,56.6225 37.5,55C 40.1194,54.2493 42.4527,53.7493 44.5,53.5 Z"/></g>
<g><path style="opacity:1" fill="#5a5804" d="M 146.5,52.5 C 155.171,55.71 164.171,58.8766 173.5,62C 176.964,64.0465 180.63,65.7132 184.5,67C 186.649,68.152 188.482,69.652 190,71.5C 190.383,70.944 190.883,70.6107 191.5,70.5C 191.5,72.5 191.5,74.5 191.5,76.5C 190.883,76.6107 190.383,76.944 190,77.5C 183.702,74.2674 177.702,70.6008 172,66.5C 171.667,66.8333 171.333,67.1667 171,67.5C 168.429,66.5991 166.096,65.2658 164,63.5C 159.638,65.7673 156.138,64.6006 153.5,60C 151.899,59.7266 150.399,59.2266 149,58.5C 148.667,58.8333 148.333,59.1667 148,59.5C 147.722,58.5842 147.222,57.9175 146.5,57.5C 146.5,55.8333 146.5,54.1667 146.5,52.5 Z"/></g>
<g><path style="opacity:1" fill="#545203" d="M 34.5,58.5 C 22.4857,64.0104 10.819,70.3438 -0.5,77.5C -0.5,75.8333 -0.5,74.1667 -0.5,72.5C 1.91311,70.1128 4.57978,67.9461 7.5,66C 12.0788,65.0742 15.9121,62.9075 19,59.5C 19.3333,60.1667 19.6667,60.8333 20,61.5C 21.0968,59.9474 22.4301,58.614 24,57.5C 24.3333,57.8333 24.6667,58.1667 25,58.5C 26.2419,57.1279 27.7419,56.1279 29.5,55.5C 31.4698,56.4431 32.9698,55.7764 34,53.5C 34.4935,55.1341 34.6602,56.8008 34.5,58.5 Z"/></g>
<g><path style="opacity:1" fill="#3b3b00" d="M 62.5,61.5 C 56.9744,64 53.9744,62.3333 53.5,56.5C 59.4682,52.9299 62.4682,54.5965 62.5,61.5 Z"/></g>
<g><path style="opacity:1" fill="#414100" d="M 72.5,57.5 C 73.1635,59.0419 73.8302,60.7086 74.5,62.5C 77.2741,61.1991 80.1074,60.1991 83,59.5C 84.4357,59.5589 85.769,59.8922 87,60.5C 94.2789,58.798 101.446,58.1313 108.5,58.5C 109.909,60.9717 111.576,63.305 113.5,65.5C 106.37,65.509 99.0369,65.6756 91.5,66C 88.2144,66.9268 85.0477,67.0934 82,66.5C 79.8491,66.7725 77.8491,67.4392 76,68.5C 73.9734,68.0137 71.8067,68.0137 69.5,68.5C 71.3757,65.0791 72.3757,61.4124 72.5,57.5 Z"/></g>
<g><path style="opacity:1" fill="#505c09" d="M 114.5,48.5 C 113.89,49.391 113.557,50.391 113.5,51.5C 113.972,60.8021 118.639,63.9687 127.5,61C 129.919,59.4912 130.919,57.3245 130.5,54.5C 131.494,53.0011 131.494,51.3344 130.5,49.5C 132.099,50.562 133.766,50.562 135.5,49.5C 137.41,57.9306 134.41,63.9306 126.5,67.5C 121.899,67.9449 117.565,67.2783 113.5,65.5C 111.576,63.305 109.909,60.9717 108.5,58.5C 108.342,55.0977 108.676,51.7644 109.5,48.5C 111.234,47.438 112.901,47.438 114.5,48.5 Z"/></g>
<g><path style="opacity:1" fill="#5c5d04" d="M 113.5,51.5 C 114.833,51.5 116.167,51.5 117.5,51.5C 117.232,53.099 117.566,54.4324 118.5,55.5C 119.69,58.0771 121.69,58.9105 124.5,58C 126.607,56.7365 127.607,54.9032 127.5,52.5C 128.71,52.9321 129.71,53.5987 130.5,54.5C 130.919,57.3245 129.919,59.4912 127.5,61C 118.639,63.9687 113.972,60.8021 113.5,51.5 Z"/></g>
<g><path style="opacity:1" fill="#3b3b00" d="M 127.5,52.5 C 127.607,54.9032 126.607,56.7365 124.5,58C 121.69,58.9105 119.69,58.0771 118.5,55.5C 118.178,53.2776 118.845,51.4443 120.5,50C 123.481,49.162 125.814,49.9953 127.5,52.5 Z"/></g>
<g><path style="opacity:1" fill="#5a5804" d="M 34.5,58.5 C 34.2155,60.4147 34.5489,62.0813 35.5,63.5C 36.3382,63.8417 36.6716,64.5084 36.5,65.5C 37.1098,66.391 37.4431,67.391 37.5,68.5C 36.2876,67.7701 35.2876,66.7701 34.5,65.5C 32.0182,66.8972 29.3516,67.7306 26.5,68C 24.6969,68.6368 23.3636,69.8035 22.5,71.5C 17.0731,73.7499 11.7398,76.2499 6.5,79C 4.83382,82.1385 2.50049,83.6385 -0.5,83.5C -0.5,81.5 -0.5,79.5 -0.5,77.5C 10.819,70.3438 22.4857,64.0104 34.5,58.5 Z"/></g>
<g><path style="opacity:1" fill="#5c5e04" d="M 66.5,54.5 C 67.5946,66.0495 62.5946,69.7161 51.5,65.5C 50.2504,62.994 49.5838,60.3274 49.5,57.5C 50.9621,58.4709 52.2954,58.1376 53.5,56.5C 53.9744,62.3333 56.9744,64 62.5,61.5C 63.8112,59.4402 63.8112,57.2735 62.5,55C 63.7932,54.51 65.1266,54.3433 66.5,54.5 Z"/></g>
<g><path style="opacity:1" fill="#605e04" d="M 146.5,57.5 C 147.222,57.9175 147.722,58.5842 148,59.5C 148.333,59.1667 148.667,58.8333 149,58.5C 150.399,59.2266 151.899,59.7266 153.5,60C 156.138,64.6006 159.638,65.7673 164,63.5C 166.096,65.2658 168.429,66.5991 171,67.5C 171.333,67.1667 171.667,66.8333 172,66.5C 177.702,70.6008 183.702,74.2674 190,77.5C 190.383,76.944 190.883,76.6107 191.5,76.5C 191.5,78.8333 191.5,81.1667 191.5,83.5C 182.335,78.4172 173.002,73.5838 163.5,69C 159.046,67.6258 154.546,66.4591 150,65.5C 147.391,66.4331 144.891,66.7664 142.5,66.5C 142.893,64.7162 143.559,63.0495 144.5,61.5C 145.674,60.4863 146.34,59.153 146.5,57.5 Z"/></g>
<g><path style="opacity:1" fill="#4b5709" d="M 49.5,54.5 C 49.5,55.5 49.5,56.5 49.5,57.5C 49.5838,60.3274 50.2504,62.994 51.5,65.5C 50.1938,66.4674 49.5271,67.8007 49.5,69.5C 46.5035,66.5026 44.8369,62.836 44.5,58.5C 45.3019,57.0484 45.8019,55.3817 46,53.5C 46.9529,55.3731 48.1196,55.7065 49.5,54.5 Z"/></g>
<g><path style="opacity:1" fill="#525e09" d="M 71.5,52.5 C 71.5,52.8333 71.5,53.1667 71.5,53.5C 72.2341,54.7079 72.5674,56.0413 72.5,57.5C 72.3757,61.4124 71.3757,65.0791 69.5,68.5C 64.9841,71.4466 59.9841,72.7799 54.5,72.5C 53.0351,71.2632 51.3684,70.2632 49.5,69.5C 49.5271,67.8007 50.1938,66.4674 51.5,65.5C 62.5946,69.7161 67.5946,66.0495 66.5,54.5C 66.1667,53.8333 65.8333,53.1667 65.5,52.5C 67.5,51.1667 69.5,51.1667 71.5,52.5 Z"/></g>
<g><path style="opacity:1" fill="#404000" d="M 135.5,47.5 C 136.338,47.8417 136.672,48.5084 136.5,49.5C 137.21,51.7463 137.71,54.0796 138,56.5C 138.741,57.6405 139.575,57.6405 140.5,56.5C 142.16,57.1716 143.493,58.1716 144.5,59.5C 144.5,60.1667 144.5,60.8333 144.5,61.5C 143.559,63.0495 142.893,64.7162 142.5,66.5C 141.5,66.8333 140.833,67.5 140.5,68.5C 140.167,69.5 139.5,70.1667 138.5,70.5C 134.371,69.717 130.371,68.717 126.5,67.5C 134.41,63.9306 137.41,57.9306 135.5,49.5C 135.5,48.8333 135.5,48.1667 135.5,47.5 Z"/></g>
<g><path style="opacity:1" fill="#615f04" d="M 37.5,68.5 C 38.1098,69.391 38.4431,70.391 38.5,71.5C 35.0232,72.7578 32.0232,74.0911 29.5,75.5C 28.1575,74.0977 27.3242,74.4311 27,76.5C 23.6226,75.1073 21.456,76.274 20.5,80C 17.0247,81.8098 13.858,83.9765 11,86.5C 8.90976,85.2092 7.57643,85.8758 7,88.5C 6.66667,88.1667 6.33333,87.8333 6,87.5C 4.63129,90.5953 2.46462,92.9287 -0.5,94.5C -0.5,90.8333 -0.5,87.1667 -0.5,83.5C 2.50049,83.6385 4.83382,82.1385 6.5,79C 11.7398,76.2499 17.0731,73.7499 22.5,71.5C 23.3636,69.8035 24.6969,68.6368 26.5,68C 29.3516,67.7306 32.0182,66.8972 34.5,65.5C 35.2876,66.7701 36.2876,67.7701 37.5,68.5 Z"/></g>
<g><path style="opacity:1" fill="#474700" d="M 113.5,65.5 C 117.565,67.2783 121.899,67.9449 126.5,67.5C 130.371,68.717 134.371,69.717 138.5,70.5C 137.306,71.2719 136.306,72.2719 135.5,73.5C 133.597,73.7959 131.93,74.4625 130.5,75.5C 129.167,75.5 127.833,75.5 126.5,75.5C 123.721,74.1111 120.721,73.2778 117.5,73C 106.167,72.3333 94.8333,72.3333 83.5,73C 72.8498,74.8847 62.5165,77.0513 52.5,79.5C 50.8653,78.9537 49.1986,78.6204 47.5,78.5C 46.391,78.4431 45.391,78.1098 44.5,77.5C 44.5,77.1667 44.5,76.8333 44.5,76.5C 47.8739,74.2519 51.2073,72.9185 54.5,72.5C 59.9841,72.7799 64.9841,71.4466 69.5,68.5C 71.8067,68.0137 73.9734,68.0137 76,68.5C 77.8491,67.4392 79.8491,66.7725 82,66.5C 85.0477,67.0934 88.2144,66.9268 91.5,66C 99.0369,65.6756 106.37,65.509 113.5,65.5 Z"/></g>
<g><path style="opacity:1" fill="#676504" d="M 191.5,83.5 C 191.5,86.1667 191.5,88.8333 191.5,91.5C 186.499,86.9956 180.832,83.4956 174.5,81C 173.965,78.8913 172.965,78.3913 171.5,79.5C 170.808,78.9747 170.308,78.3081 170,77.5C 169.667,77.8333 169.333,78.1667 169,78.5C 163.068,75.7883 156.902,72.7883 150.5,69.5C 148.737,69.3062 146.903,69.3062 145,69.5C 144.333,68.8333 143.667,68.1667 143,67.5C 142.329,68.2524 141.496,68.5858 140.5,68.5C 140.833,67.5 141.5,66.8333 142.5,66.5C 144.891,66.7664 147.391,66.4331 150,65.5C 154.546,66.4591 159.046,67.6258 163.5,69C 173.002,73.5838 182.335,78.4172 191.5,83.5 Z"/></g>
<g><path style="opacity:1" fill="#404000" d="M 44.5,55.5 C 44.5,56.5 44.5,57.5 44.5,58.5C 44.8369,62.836 46.5035,66.5026 49.5,69.5C 51.3684,70.2632 53.0351,71.2632 54.5,72.5C 51.2073,72.9185 47.8739,74.2519 44.5,76.5C 43.5084,76.6716 42.8417,76.3382 42.5,75.5C 41.5,73.8333 40.1667,72.5 38.5,71.5C 38.4431,70.391 38.1098,69.391 37.5,68.5C 37.4431,67.391 37.1098,66.391 36.5,65.5C 38.5213,63.5739 40.688,62.5739 43,62.5C 43.1862,59.9644 43.6862,57.631 44.5,55.5 Z"/></g>
<g><path style="opacity:1" fill="#6d6b04" d="M 191.5,91.5 C 191.5,92.5 191.5,93.5 191.5,94.5C 190.127,94.6567 188.793,94.49 187.5,94C 185.912,91.5213 183.912,91.0213 181.5,92.5C 180.723,89.8878 179.056,88.0545 176.5,87C 169.3,83.4935 162.133,79.9935 155,76.5C 153.475,76.1119 151.808,76.1119 150,76.5C 146.16,73.1803 142.16,72.5136 138,74.5C 137.329,73.7476 136.496,73.4142 135.5,73.5C 136.306,72.2719 137.306,71.2719 138.5,70.5C 139.5,70.1667 140.167,69.5 140.5,68.5C 141.496,68.5858 142.329,68.2524 143,67.5C 143.667,68.1667 144.333,68.8333 145,69.5C 146.903,69.3062 148.737,69.3062 150.5,69.5C 156.902,72.7883 163.068,75.7883 169,78.5C 169.333,78.1667 169.667,77.8333 170,77.5C 170.308,78.3081 170.808,78.9747 171.5,79.5C 172.965,78.3913 173.965,78.8913 174.5,81C 180.832,83.4956 186.499,86.9956 191.5,91.5 Z"/></g>
<g><path style="opacity:1" fill="#686604" d="M 38.5,71.5 C 40.1667,72.5 41.5,73.8333 42.5,75.5C 38.091,76.582 33.7577,77.9153 29.5,79.5C 28.914,79.2907 28.414,78.9574 28,78.5C 24.0806,83.8358 18.9139,87.3358 12.5,89C 7.76998,92.0287 3.43665,95.5287 -0.5,99.5C -0.5,97.8333 -0.5,96.1667 -0.5,94.5C 2.46462,92.9287 4.63129,90.5953 6,87.5C 6.33333,87.8333 6.66667,88.1667 7,88.5C 7.57643,85.8758 8.90976,85.2092 11,86.5C 13.858,83.9765 17.0247,81.8098 20.5,80C 21.456,76.274 23.6226,75.1073 27,76.5C 27.3242,74.4311 28.1575,74.0977 29.5,75.5C 32.0232,74.0911 35.0232,72.7578 38.5,71.5 Z"/></g>
<g><path style="opacity:1" fill="#4d4d00" d="M 126.5,75.5 C 125.432,76.4345 124.099,76.7678 122.5,76.5C 122.5,78.5 122.5,80.5 122.5,82.5C 120.398,82.4298 118.398,81.9298 116.5,81C 116.833,80.6667 117.167,80.3333 117.5,80C 113.041,79.4763 108.874,79.643 105,80.5C 103.687,79.4272 102.187,78.7605 100.5,78.5C 94.8631,79.2426 89.1964,79.7426 83.5,80C 83.8333,80.3333 84.1667,80.6667 84.5,81C 83.5838,81.3742 82.7504,81.8742 82,82.5C 78.7857,81.6497 75.7857,81.6497 73,82.5C 70.2577,83.8453 67.591,84.8453 65,85.5C 64,84.1667 63,84.1667 62,85.5C 61.7216,84.5842 61.2216,83.9175 60.5,83.5C 60.5,83.1667 60.5,82.8333 60.5,82.5C 58.0521,81.5269 55.3854,81.1936 52.5,81.5C 50.7392,80.6873 49.0725,79.6873 47.5,78.5C 49.1986,78.6204 50.8653,78.9537 52.5,79.5C 62.5165,77.0513 72.8498,74.8847 83.5,73C 94.8333,72.3333 106.167,72.3333 117.5,73C 120.721,73.2778 123.721,74.1111 126.5,75.5 Z"/></g>
<g><path style="opacity:1" fill="#737105" d="M 181.5,92.5 C 180.602,93.1577 179.602,93.8243 178.5,94.5C 180.424,94.567 182.424,94.9003 184.5,95.5C 185.735,97.3163 185.735,98.983 184.5,100.5C 182.708,98.4307 180.374,97.0974 177.5,96.5C 177.67,95.1779 177.337,94.0113 176.5,93C 162.001,84.0148 146.668,78.1815 130.5,75.5C 131.93,74.4625 133.597,73.7959 135.5,73.5C 136.496,73.4142 137.329,73.7476 138,74.5C 142.16,72.5136 146.16,73.1803 150,76.5C 151.808,76.1119 153.475,76.1119 155,76.5C 162.133,79.9935 169.3,83.4935 176.5,87C 179.056,88.0545 180.723,89.8878 181.5,92.5 Z"/></g>
<g><path style="opacity:1" fill="#6d6b04" d="M 42.5,75.5 C 42.8417,76.3382 43.5084,76.6716 44.5,76.5C 44.5,76.8333 44.5,77.1667 44.5,77.5C 31.8343,82.2603 21.1677,88.427 12.5,96C 10.5,97 8.5,98 6.5,99C 4.66708,101.998 2.33375,104.498 -0.5,106.5C -0.5,104.167 -0.5,101.833 -0.5,99.5C 3.43665,95.5287 7.76998,92.0287 12.5,89C 18.9139,87.3358 24.0806,83.8358 28,78.5C 28.414,78.9574 28.914,79.2907 29.5,79.5C 33.7577,77.9153 38.091,76.582 42.5,75.5 Z"/></g>
<g><path style="opacity:1" fill="#7a7805" d="M 184.5,100.5 C 182.787,101.635 182.12,103.302 182.5,105.5C 179.393,103.895 176.726,101.728 174.5,99C 159.318,90.1888 143.651,84.0222 127.5,80.5C 126.158,81.9023 125.324,81.5689 125,79.5C 124.51,80.7932 124.343,82.1266 124.5,83.5C 124.5,84.5 124.5,85.5 124.5,86.5C 124.5,89.5 124.5,92.5 124.5,95.5C 124.167,95.5 123.833,95.5 123.5,95.5C 123.5,89.5 123.5,83.5 123.5,77.5C 126.152,77.5905 128.485,76.9238 130.5,75.5C 146.668,78.1815 162.001,84.0148 176.5,93C 177.337,94.0113 177.67,95.1779 177.5,96.5C 180.374,97.0974 182.708,98.4307 184.5,100.5 Z"/></g>
<g><path style="opacity:1" fill="#545400" d="M 122.5,82.5 C 122.5,84.1667 122.5,85.8333 122.5,87.5C 115.37,86.8828 108.037,86.2162 100.5,85.5C 95.5239,85.4433 90.6906,86.1099 86,87.5C 85.4387,86.9781 84.772,86.6448 84,86.5C 78.0804,87.562 72.2471,88.7286 66.5,90C 65.8742,90.7504 65.3742,91.5838 65,92.5C 64.3333,91.1667 63.6667,91.1667 63,92.5C 62.4338,90.2774 61.6005,88.2774 60.5,86.5C 60.5,85.5 60.5,84.5 60.5,83.5C 61.2216,83.9175 61.7216,84.5842 62,85.5C 63,84.1667 64,84.1667 65,85.5C 67.591,84.8453 70.2577,83.8453 73,82.5C 75.7857,81.6497 78.7857,81.6497 82,82.5C 82.7504,81.8742 83.5838,81.3742 84.5,81C 84.1667,80.6667 83.8333,80.3333 83.5,80C 89.1964,79.7426 94.8631,79.2426 100.5,78.5C 102.187,78.7605 103.687,79.4272 105,80.5C 108.874,79.643 113.041,79.4763 117.5,80C 117.167,80.3333 116.833,80.6667 116.5,81C 118.398,81.9298 120.398,82.4298 122.5,82.5 Z"/></g>
<g><path style="opacity:1" fill="#737105" d="M 44.5,77.5 C 45.391,78.1098 46.391,78.4431 47.5,78.5C 49.0725,79.6873 50.7392,80.6873 52.5,81.5C 47.9168,81.5277 43.7502,82.861 40,85.5C 24.2428,91.5114 10.7428,101.178 -0.5,114.5C -0.5,111.833 -0.5,109.167 -0.5,106.5C 2.33375,104.498 4.66708,101.998 6.5,99C 8.5,98 10.5,97 12.5,96C 21.1677,88.427 31.8343,82.2603 44.5,77.5 Z"/></g>
<g><path style="opacity:1" fill="#807e05" d="M 182.5,105.5 C 183.833,110.264 186.833,111.598 191.5,109.5C 191.5,112.833 191.5,116.167 191.5,119.5C 173.16,100.363 150.826,88.3627 124.5,83.5C 124.343,82.1266 124.51,80.7932 125,79.5C 125.324,81.5689 126.158,81.9023 127.5,80.5C 143.651,84.0222 159.318,90.1888 174.5,99C 176.726,101.728 179.393,103.895 182.5,105.5 Z"/></g>
<g><path style="opacity:1" fill="#797705" d="M 52.5,81.5 C 55.3854,81.1936 58.0521,81.5269 60.5,82.5C 58.396,82.2011 56.396,82.5344 54.5,83.5C 52.8208,84.782 50.9874,85.782 49,86.5C 47.984,85.3659 47.3173,85.6992 47,87.5C 46.6667,87.1667 46.3333,86.8333 46,86.5C 40.5426,90.151 34.3759,93.3177 27.5,96C 24.4135,99.5665 20.7469,102.233 16.5,104C 10.2872,109.711 4.62049,115.877 -0.5,122.5C -0.5,119.833 -0.5,117.167 -0.5,114.5C 10.7428,101.178 24.2428,91.5114 40,85.5C 43.7502,82.861 47.9168,81.5277 52.5,81.5 Z"/></g>
<g><path style="opacity:1" fill="#807e05" d="M 60.5,82.5 C 60.5,82.8333 60.5,83.1667 60.5,83.5C 60.5,84.5 60.5,85.5 60.5,86.5C 60.5,86.8333 60.5,87.1667 60.5,87.5C 34.346,95.3462 14.0127,110.68 -0.5,133.5C -0.5,129.833 -0.5,126.167 -0.5,122.5C 4.62049,115.877 10.2872,109.711 16.5,104C 20.7469,102.233 24.4135,99.5665 27.5,96C 34.3759,93.3177 40.5426,90.151 46,86.5C 46.3333,86.8333 46.6667,87.1667 47,87.5C 47.3173,85.6992 47.984,85.3659 49,86.5C 50.9874,85.782 52.8208,84.782 54.5,83.5C 56.396,82.5344 58.396,82.2011 60.5,82.5 Z"/></g>
<g><path style="opacity:1" fill="#5a5a00" d="M 126.5,75.5 C 127.833,75.5 129.167,75.5 130.5,75.5C 128.485,76.9238 126.152,77.5905 123.5,77.5C 123.5,83.5 123.5,89.5 123.5,95.5C 123.5,95.8333 123.5,96.1667 123.5,96.5C 122.596,95.791 122.263,94.791 122.5,93.5C 120.533,93.2606 118.699,93.5939 117,94.5C 111.8,92.6501 106.3,91.6501 100.5,91.5C 94.6999,91.6501 89.1999,92.6501 84,94.5C 81.3583,92.9414 79.025,93.2747 77,95.5C 74.5194,94.9783 72.186,94.9783 70,95.5C 67.302,96.2798 64.9686,97.6131 63,99.5C 62.8019,97.6183 62.3019,95.9516 61.5,94.5C 61.3259,92.139 60.9926,89.8056 60.5,87.5C 60.5,87.1667 60.5,86.8333 60.5,86.5C 61.6005,88.2774 62.4338,90.2774 63,92.5C 63.6667,91.1667 64.3333,91.1667 65,92.5C 65.3742,91.5838 65.8742,90.7504 66.5,90C 72.2471,88.7286 78.0804,87.562 84,86.5C 84.772,86.6448 85.4387,86.9781 86,87.5C 90.6906,86.1099 95.5239,85.4433 100.5,85.5C 108.037,86.2162 115.37,86.8828 122.5,87.5C 122.5,85.8333 122.5,84.1667 122.5,82.5C 122.5,80.5 122.5,78.5 122.5,76.5C 124.099,76.7678 125.432,76.4345 126.5,75.5 Z"/></g>
<g><path style="opacity:1" fill="#868405" d="M 124.5,83.5 C 150.826,88.3627 173.16,100.363 191.5,119.5C 191.5,122.167 191.5,124.833 191.5,127.5C 174.725,106.566 153.558,93.8992 128,89.5C 126.641,88.635 125.474,87.635 124.5,86.5C 124.5,85.5 124.5,84.5 124.5,83.5 Z"/></g>
<g><path style="opacity:1" fill="#868405" d="M 60.5,87.5 C 60.9926,89.8056 61.3259,92.139 61.5,94.5C 61.5,94.8333 61.5,95.1667 61.5,95.5C 60.596,94.791 60.2627,93.791 60.5,92.5C 57.0626,93.1338 53.8959,94.4672 51,96.5C 50.6667,96.1667 50.3333,95.8333 50,95.5C 41.9187,99.789 34.0854,104.456 26.5,109.5C 19.8163,115.35 13.6497,121.683 8,128.5C 4.46268,134.24 1.62935,139.907 -0.5,145.5C -0.5,141.5 -0.5,137.5 -0.5,133.5C 14.0127,110.68 34.346,95.3462 60.5,87.5 Z"/></g>
<g><path style="opacity:1" fill="#616100" d="M 123.5,96.5 C 123.662,98.5273 123.495,100.527 123,102.5C 120.954,99.6193 118.787,99.286 116.5,101.5C 116.423,100.25 115.756,99.4169 114.5,99C 107.5,98.3333 100.5,98.3333 93.5,99C 92.944,99.3826 92.6107,99.8826 92.5,100.5C 90.5772,104.029 89.9106,108.029 90.5,112.5C 90.1667,112.5 89.8333,112.5 89.5,112.5C 89.5,111.5 89.5,110.5 89.5,109.5C 91.5054,101.5 88.8388,98.8337 81.5,101.5C 80.8333,101.833 80.1667,102.167 79.5,102.5C 75.0673,100.417 72.0673,101.751 70.5,106.5C 68.9261,108.102 68.2594,110.102 68.5,112.5C 65.6118,112.22 64.1118,113.553 64,116.5C 63.8138,113.964 63.3138,111.631 62.5,109.5C 62.7678,107.901 62.4345,106.568 61.5,105.5C 61.5,103.5 61.5,101.5 61.5,99.5C 61.5,98.8333 61.5,98.1667 61.5,97.5C 61.5,96.8333 61.5,96.1667 61.5,95.5C 61.5,95.1667 61.5,94.8333 61.5,94.5C 62.3019,95.9516 62.8019,97.6183 63,99.5C 64.9686,97.6131 67.302,96.2798 70,95.5C 72.186,94.9783 74.5194,94.9783 77,95.5C 79.025,93.2747 81.3583,92.9414 84,94.5C 89.1999,92.6501 94.6999,91.6501 100.5,91.5C 106.3,91.6501 111.8,92.6501 117,94.5C 118.699,93.5939 120.533,93.2606 122.5,93.5C 122.263,94.791 122.596,95.791 123.5,96.5 Z"/></g>
<g><path style="opacity:1" fill="#8d8a06" d="M 61.5,95.5 C 61.5,96.1667 61.5,96.8333 61.5,97.5C 57.6338,97.1556 54.1338,98.4889 51,101.5C 50.6667,101.167 50.3333,100.833 50,100.5C 42.4486,104.453 35.2819,108.953 28.5,114C 24.5527,119.07 20.0527,123.57 15,127.5C 12.9488,132.214 10.1155,136.381 6.5,140C 6.83333,140.333 7.16667,140.667 7.5,141C 4.45303,145.852 2.45303,150.852 1.5,156C 1.83333,156.333 2.16667,156.667 2.5,157C -0.150588,165.136 -0.150588,173.303 2.5,181.5C 2.29069,182.086 1.95735,182.586 1.5,183C 2.5,185.333 3.5,187.667 4.5,190C 3.94404,190.383 3.61071,190.883 3.5,191.5C 2.16667,191.5 0.833333,191.5 -0.5,191.5C -0.5,176.167 -0.5,160.833 -0.5,145.5C 1.62935,139.907 4.46268,134.24 8,128.5C 13.6497,121.683 19.8163,115.35 26.5,109.5C 34.0854,104.456 41.9187,99.789 50,95.5C 50.3333,95.8333 50.6667,96.1667 51,96.5C 53.8959,94.4672 57.0626,93.1338 60.5,92.5C 60.2627,93.791 60.596,94.791 61.5,95.5 Z"/></g>
<g><path style="opacity:1" fill="#939007" d="M 191.5,136.5 C 191.5,140.167 191.5,143.833 191.5,147.5C 190.636,146.312 189.636,145.145 188.5,144C 189.634,142.984 189.301,142.317 187.5,142C 188.451,141.282 188.617,140.449 188,139.5C 174.263,117.729 154.93,104.062 130,98.5C 128.249,97.7775 126.749,96.7775 125.5,95.5C 125.281,94.325 125.614,93.325 126.5,92.5C 149.024,97.5476 168.524,108.881 185,126.5C 186.942,130.069 189.108,133.402 191.5,136.5 Z"/></g>
<g><path style="opacity:1" fill="#928f07" d="M 61.5,97.5 C 61.5,98.1667 61.5,98.8333 61.5,99.5C 51.95,103.611 42.95,108.778 34.5,115C 26.0426,122.45 18.7092,130.784 12.5,140C 12.5,141.333 12.5,142.667 12.5,144C 10.6992,144.317 10.3659,144.984 11.5,146C 8.82289,147.463 7.82289,149.463 8.5,152C 7.80971,155.209 6.80971,158.376 5.5,161.5C 5.54067,166.671 5.54067,171.837 5.5,177C 5.99175,181.554 7.32509,185.887 9.5,190C 8.94404,190.383 8.61071,190.883 8.5,191.5C 6.83333,191.5 5.16667,191.5 3.5,191.5C 3.61071,190.883 3.94404,190.383 4.5,190C 3.5,187.667 2.5,185.333 1.5,183C 1.95735,182.586 2.29069,182.086 2.5,181.5C -0.150588,173.303 -0.150588,165.136 2.5,157C 2.16667,156.667 1.83333,156.333 1.5,156C 2.45303,150.852 4.45303,145.852 7.5,141C 7.16667,140.667 6.83333,140.333 6.5,140C 10.1155,136.381 12.9488,132.214 15,127.5C 20.0527,123.57 24.5527,119.07 28.5,114C 35.2819,108.953 42.4486,104.453 50,100.5C 50.3333,100.833 50.6667,101.167 51,101.5C 54.1338,98.4889 57.6338,97.1556 61.5,97.5 Z"/></g>
<g><path style="opacity:1" fill="#696d01" d="M 116.5,101.5 C 114.087,99.9493 111.421,99.2826 108.5,99.5C 108.5,101.167 108.5,102.833 108.5,104.5C 108.5,107.5 108.5,110.5 108.5,113.5C 108.737,114.791 108.404,115.791 107.5,116.5C 107.093,110.839 106.76,105.172 106.5,99.5C 104.167,99.5 101.833,99.5 99.5,99.5C 99.5,103.5 99.5,107.5 99.5,111.5C 99.7373,112.791 99.404,113.791 98.5,114.5C 98.1667,109.833 97.8333,105.167 97.5,100.5C 95.8333,100.5 94.1667,100.5 92.5,100.5C 92.6107,99.8826 92.944,99.3826 93.5,99C 100.5,98.3333 107.5,98.3333 114.5,99C 115.756,99.4169 116.423,100.25 116.5,101.5 Z"/></g>
<g><path style="opacity:1" fill="#999607" d="M 125.5,95.5 C 126.749,96.7775 128.249,97.7775 130,98.5C 154.93,104.062 174.263,117.729 188,139.5C 188.617,140.449 188.451,141.282 187.5,142C 189.301,142.317 189.634,142.984 188.5,144C 189.636,145.145 190.636,146.312 191.5,147.5C 191.5,162.167 191.5,176.833 191.5,191.5C 188.833,191.5 186.167,191.5 183.5,191.5C 184.965,188.361 186.299,185.528 187.5,183C 187.043,182.586 186.709,182.086 186.5,181.5C 187.447,179.941 188.113,178.274 188.5,176.5C 188.46,171.672 188.46,166.839 188.5,162C 183.451,139.909 170.951,123.075 151,111.5C 150.667,111.833 150.333,112.167 150,112.5C 147.08,109.371 143.746,107.704 140,107.5C 135.578,104.748 130.745,103.081 125.5,102.5C 125.5,100.167 125.5,97.8333 125.5,95.5 Z"/></g>
<g><path style="opacity:1" fill="#748e0f" d="M 116.5,101.5 C 118.222,104.92 118.889,108.586 118.5,112.5C 117.4,110.723 116.566,108.723 116,106.5C 114.605,107.815 113.605,107.481 113,105.5C 111.184,106.743 109.684,106.41 108.5,104.5C 108.5,102.833 108.5,101.167 108.5,99.5C 111.421,99.2826 114.087,99.9493 116.5,101.5 Z"/></g>
<g><path style="opacity:1" fill="#504f01" d="M 191.5,94.5 C 191.5,99.5 191.5,104.5 191.5,109.5C 186.833,111.598 183.833,110.264 182.5,105.5C 182.12,103.302 182.787,101.635 184.5,100.5C 185.735,98.983 185.735,97.3163 184.5,95.5C 182.424,94.9003 180.424,94.567 178.5,94.5C 179.602,93.8243 180.602,93.1577 181.5,92.5C 183.912,91.0213 185.912,91.5213 187.5,94C 188.793,94.49 190.127,94.6567 191.5,94.5 Z"/></g>
<g><path style="opacity:1" fill="#999607" d="M 61.5,99.5 C 61.5,101.5 61.5,103.5 61.5,105.5C 53.769,109.326 46.1023,113.826 38.5,119C 29.5832,126.437 22.4166,135.27 17,145.5C 16.3942,150.572 14.8942,155.072 12.5,159C 12.7355,159.873 13.0688,160.707 13.5,161.5C 10.8673,166.699 10.8673,171.866 13.5,177C 12.3166,179.155 12.6499,181.155 14.5,183C 13.5419,184.147 13.8753,185.147 15.5,186C 15.1667,186.333 14.8333,186.667 14.5,187C 16.0368,188.11 16.7035,189.61 16.5,191.5C 13.8333,191.5 11.1667,191.5 8.5,191.5C 8.61071,190.883 8.94404,190.383 9.5,190C 7.32509,185.887 5.99175,181.554 5.5,177C 5.54067,171.837 5.54067,166.671 5.5,161.5C 6.80971,158.376 7.80971,155.209 8.5,152C 7.82289,149.463 8.82289,147.463 11.5,146C 10.3659,144.984 10.6992,144.317 12.5,144C 12.5,142.667 12.5,141.333 12.5,140C 18.7092,130.784 26.0426,122.45 34.5,115C 42.95,108.778 51.95,103.611 61.5,99.5 Z"/></g>
<g><path style="opacity:1" fill="#748e0f" d="M 89.5,109.5 C 87.7713,107.273 85.438,106.273 82.5,106.5C 82.5,109.167 82.5,111.833 82.5,114.5C 82.1667,114.5 81.8333,114.5 81.5,114.5C 81.5,110.167 81.5,105.833 81.5,101.5C 88.8388,98.8337 91.5054,101.5 89.5,109.5 Z"/></g>
<g><path style="opacity:1" fill="#78940f" d="M 92.5,100.5 C 94.1667,100.5 95.8333,100.5 97.5,100.5C 97.8333,105.167 98.1667,109.833 98.5,114.5C 98.5,115.5 98.5,116.5 98.5,117.5C 97.7337,115.316 97.0671,112.982 96.5,110.5C 95.3112,109.571 93.9778,109.238 92.5,109.5C 92.7845,111.415 92.4511,113.081 91.5,114.5C 91.1667,113.833 90.8333,113.167 90.5,112.5C 89.9106,108.029 90.5772,104.029 92.5,100.5 Z"/></g>
<g><path style="opacity:1" fill="#789410" d="M 107.5,116.5 C 106.549,115.081 106.216,113.415 106.5,111.5C 104.5,111.5 102.5,111.5 100.5,111.5C 100.167,111.5 99.8333,111.5 99.5,111.5C 99.5,107.5 99.5,103.5 99.5,99.5C 101.833,99.5 104.167,99.5 106.5,99.5C 106.76,105.172 107.093,110.839 107.5,116.5 Z"/></g>
<g><path style="opacity:1" fill="#779410" d="M 79.5,102.5 C 79.423,106.215 79.7564,109.881 80.5,113.5C 79.4168,113.461 78.4168,113.127 77.5,112.5C 76.8027,114.385 75.8027,114.718 74.5,113.5C 73.1401,114.18 71.8068,114.847 70.5,115.5C 70.5,112.5 70.5,109.5 70.5,106.5C 72.0673,101.751 75.0673,100.417 79.5,102.5 Z"/></g>
<g><path style="opacity:1" fill="#6b6a00" d="M 123.5,95.5 C 123.833,95.5 124.167,95.5 124.5,95.5C 124.5,100.5 124.5,105.5 124.5,110.5C 124.663,112.857 124.497,115.19 124,117.5C 122.954,114.541 121.121,113.874 118.5,115.5C 118.5,114.5 118.5,113.5 118.5,112.5C 118.889,108.586 118.222,104.92 116.5,101.5C 118.787,99.286 120.954,99.6193 123,102.5C 123.495,100.527 123.662,98.5273 123.5,96.5C 123.5,96.1667 123.5,95.8333 123.5,95.5 Z"/></g>
<g><path style="opacity:1" fill="#8b8806" d="M 124.5,86.5 C 125.474,87.635 126.641,88.635 128,89.5C 153.558,93.8992 174.725,106.566 191.5,127.5C 191.5,130.5 191.5,133.5 191.5,136.5C 189.108,133.402 186.942,130.069 185,126.5C 168.524,108.881 149.024,97.5476 126.5,92.5C 125.614,93.325 125.281,94.325 125.5,95.5C 125.5,97.8333 125.5,100.167 125.5,102.5C 125.5,105.167 125.5,107.833 125.5,110.5C 125.167,110.5 124.833,110.5 124.5,110.5C 124.5,105.5 124.5,100.5 124.5,95.5C 124.5,92.5 124.5,89.5 124.5,86.5 Z"/></g>
<g><path style="opacity:1" fill="#6d7001" d="M 81.5,101.5 C 81.5,105.833 81.5,110.167 81.5,114.5C 81.7373,115.791 81.404,116.791 80.5,117.5C 80.5,116.167 80.5,114.833 80.5,113.5C 79.7564,109.881 79.423,106.215 79.5,102.5C 80.1667,102.167 80.8333,101.833 81.5,101.5 Z"/></g>
<g><path style="opacity:1" fill="#7f9d11" d="M 108.5,104.5 C 109.684,106.41 111.184,106.743 113,105.5C 113.605,107.481 114.605,107.815 116,106.5C 116.566,108.723 117.4,110.723 118.5,112.5C 118.5,113.5 118.5,114.5 118.5,115.5C 118.942,119.154 119.276,122.821 119.5,126.5C 117.754,124.416 116.421,122.083 115.5,119.5C 113.5,119.5 111.5,119.5 109.5,119.5C 109.795,117.265 109.461,115.265 108.5,113.5C 108.5,110.5 108.5,107.5 108.5,104.5 Z"/></g>
<g><path style="opacity:1" fill="#a9a508" d="M 175.5,191.5 C 173.5,191.5 171.5,191.5 169.5,191.5C 170.004,188.575 171.337,186.075 173.5,184C 172.903,182.372 173.237,180.705 174.5,179C 174.167,178.667 173.833,178.333 173.5,178C 176.167,172 176.167,166 173.5,160C 173.957,159.586 174.291,159.086 174.5,158.5C 172.121,151.362 168.621,144.362 164,137.5C 159.833,134.667 156.333,131.167 153.5,127C 148.9,124.785 144.734,121.952 141,118.5C 140.667,118.833 140.333,119.167 140,119.5C 135.689,116.389 131.189,114.722 126.5,114.5C 126.338,112.473 126.505,110.473 127,108.5C 134.709,111.891 142.709,115.557 151,119.5C 154.863,123.025 159.03,126.192 163.5,129C 166.081,133.256 169.081,137.256 172.5,141C 177.519,150.101 180.186,159.601 180.5,169.5C 180.704,172.906 180.038,176.072 178.5,179C 179.022,179.561 179.355,180.228 179.5,181C 178.295,184.217 176.962,187.717 175.5,191.5 Z"/></g>
<g><path style="opacity:1" fill="#7f9c10" d="M 89.5,109.5 C 89.5,110.5 89.5,111.5 89.5,112.5C 90.0209,116.481 90.3542,120.481 90.5,124.5C 89.6909,122.708 89.1909,120.708 89,118.5C 87.3005,117.594 85.4672,117.261 83.5,117.5C 83.5,121.833 83.5,126.167 83.5,130.5C 82.5119,125.36 82.1786,120.026 82.5,114.5C 82.5,111.833 82.5,109.167 82.5,106.5C 85.438,106.273 87.7713,107.273 89.5,109.5 Z"/></g>
<g><path style="opacity:1" fill="#a9a507" d="M 62.5,113.5 C 62.5,114.833 62.5,116.167 62.5,117.5C 52.7773,122.558 43.9439,129.558 36,138.5C 33.9296,142.908 31.4296,147.075 28.5,151C 28.8333,151.333 29.1667,151.667 29.5,152C 27.4805,154.819 26.3138,157.652 26,160.5C 25.3333,165.833 25.3333,171.167 26,176.5C 27.0194,178.269 27.186,179.936 26.5,181.5C 28.1961,184.85 29.8627,188.183 31.5,191.5C 29.1667,191.5 26.8333,191.5 24.5,191.5C 24.6107,190.883 24.944,190.383 25.5,190C 22.9444,187.494 21.9444,184.661 22.5,181.5C 21.696,180.059 21.0294,178.559 20.5,177C 20.5319,171.841 20.5319,166.674 20.5,161.5C 26.1541,138.494 40.1541,122.494 62.5,113.5 Z"/></g>
<g><path style="opacity:1" fill="#afab08" d="M 126.5,114.5 C 131.189,114.722 135.689,116.389 140,119.5C 140.333,119.167 140.667,118.833 141,118.5C 144.734,121.952 148.9,124.785 153.5,127C 156.333,131.167 159.833,134.667 164,137.5C 168.621,144.362 172.121,151.362 174.5,158.5C 174.291,159.086 173.957,159.586 173.5,160C 176.167,166 176.167,172 173.5,178C 173.833,178.333 174.167,178.667 174.5,179C 173.237,180.705 172.903,182.372 173.5,184C 171.337,186.075 170.004,188.575 169.5,191.5C 167.5,191.5 165.5,191.5 163.5,191.5C 174.596,168.995 170.596,149.162 151.5,132C 144.291,126.097 136.291,121.597 127.5,118.5C 127.167,118.5 126.833,118.5 126.5,118.5C 126.5,117.167 126.5,115.833 126.5,114.5 Z"/></g>
<g><path style="opacity:1" fill="#aeab07" d="M 62.5,117.5 C 64.0061,123.731 64.6727,130.064 64.5,136.5C 64.1667,136.5 63.8333,136.5 63.5,136.5C 63.5,135.167 63.5,133.833 63.5,132.5C 63.5,131.5 63.5,130.5 63.5,129.5C 63.162,127.146 62.662,124.813 62,122.5C 50.4871,129.681 41.3204,139.181 34.5,151C 34.8333,151.333 35.1667,151.667 35.5,152C 32.8425,154.833 31.8425,158 32.5,161.5C 29.9049,168.595 30.2382,175.261 33.5,181.5C 33.2907,182.086 32.9574,182.586 32.5,183C 34.6966,185.421 36.03,188.255 36.5,191.5C 34.8333,191.5 33.1667,191.5 31.5,191.5C 29.8627,188.183 28.1961,184.85 26.5,181.5C 27.186,179.936 27.0194,178.269 26,176.5C 25.3333,171.167 25.3333,165.833 26,160.5C 26.3138,157.652 27.4805,154.819 29.5,152C 29.1667,151.667 28.8333,151.333 28.5,151C 31.4296,147.075 33.9296,142.908 36,138.5C 43.9439,129.558 52.7773,122.558 62.5,117.5 Z"/></g>
<g><path style="opacity:1" fill="#747500" d="M 70.5,106.5 C 70.5,109.5 70.5,112.5 70.5,115.5C 70.5,118.833 70.5,122.167 70.5,125.5C 70.8076,127.924 70.4742,130.257 69.5,132.5C 67.5784,134.003 66.4117,136.003 66,138.5C 65.7216,137.584 65.2216,136.918 64.5,136.5C 64.6727,130.064 64.0061,123.731 62.5,117.5C 62.5,116.167 62.5,114.833 62.5,113.5C 62.5,112.167 62.5,110.833 62.5,109.5C 63.3138,111.631 63.8138,113.964 64,116.5C 64.1118,113.553 65.6118,112.22 68.5,112.5C 68.2594,110.102 68.9261,108.102 70.5,106.5 Z"/></g>
<g><path style="opacity:1" fill="#b3b008" d="M 127.5,118.5 C 136.291,121.597 144.291,126.097 151.5,132C 170.596,149.162 174.596,168.995 163.5,191.5C 162.167,191.5 160.833,191.5 159.5,191.5C 161.488,189.535 162.988,187.202 164,184.5C 165.533,179.099 166.7,173.932 167.5,169C 167.646,166.966 166.98,165.299 165.5,164C 166.022,161.519 166.022,159.186 165.5,157C 161.976,149.366 157.309,142.032 151.5,135C 147.918,133.38 144.918,131.047 142.5,128C 138.086,125.461 133.419,123.461 128.5,122C 127.663,120.989 127.33,119.822 127.5,118.5 Z"/></g>
<g><path style="opacity:1" fill="#83a312" d="M 80.5,113.5 C 80.5,114.833 80.5,116.167 80.5,117.5C 80.5045,121.534 80.8379,125.534 81.5,129.5C 80.7677,128.192 79.9344,126.858 79,125.5C 78.3333,126.167 77.6667,126.833 77,127.5C 75.6667,127.5 74.3333,127.5 73,127.5C 72.501,131.821 72.3343,136.154 72.5,140.5C 71.8333,135.5 71.1667,130.5 70.5,125.5C 70.5,122.167 70.5,118.833 70.5,115.5C 71.8068,114.847 73.1401,114.18 74.5,113.5C 75.8027,114.718 76.8027,114.385 77.5,112.5C 78.4168,113.127 79.4168,113.461 80.5,113.5 Z"/></g>
<g><path style="opacity:1" fill="#787b01" d="M 89.5,112.5 C 89.8333,112.5 90.1667,112.5 90.5,112.5C 90.8333,113.167 91.1667,113.833 91.5,114.5C 91.5,116.833 91.5,119.167 91.5,121.5C 91.8016,124.059 91.4682,126.393 90.5,128.5C 90.5,127.5 90.5,126.5 90.5,125.5C 90.5,125.167 90.5,124.833 90.5,124.5C 90.3542,120.481 90.0209,116.481 89.5,112.5 Z"/></g>
<g><path style="opacity:1" fill="#86a612" d="M 98.5,117.5 C 98.7038,120.518 99.0371,123.518 99.5,126.5C 98.2502,126.423 97.4169,125.756 97,124.5C 95.9887,125.337 94.8221,125.67 93.5,125.5C 93.5,129.5 93.5,133.5 93.5,137.5C 92.8333,132.167 92.1667,126.833 91.5,121.5C 91.5,119.167 91.5,116.833 91.5,114.5C 92.4511,113.081 92.7845,111.415 92.5,109.5C 93.9778,109.238 95.3112,109.571 96.5,110.5C 97.0671,112.982 97.7337,115.316 98.5,117.5 Z"/></g>
<g><path style="opacity:1" fill="#87a712" d="M 100.5,111.5 C 102.5,111.5 104.5,111.5 106.5,111.5C 106.216,113.415 106.549,115.081 107.5,116.5C 107.751,121.507 108.084,126.507 108.5,131.5C 108.5,131.833 108.5,132.167 108.5,132.5C 107.839,131.282 107.172,129.949 106.5,128.5C 104.997,129.052 103.331,129.052 101.5,128.5C 100.548,122.925 100.214,117.259 100.5,111.5 Z"/></g>
<g><path style="opacity:1" fill="#777700" d="M 124.5,110.5 C 124.833,110.5 125.167,110.5 125.5,110.5C 125.5,113.167 125.5,115.833 125.5,118.5C 125.666,123.179 125.499,127.845 125,132.5C 124.199,128.289 122.366,127.622 119.5,130.5C 119.5,129.167 119.5,127.833 119.5,126.5C 119.276,122.821 118.942,119.154 118.5,115.5C 121.121,113.874 122.954,114.541 124,117.5C 124.497,115.19 124.663,112.857 124.5,110.5 Z"/></g>
<g><path style="opacity:1" fill="#a19d06" d="M 61.5,105.5 C 62.4345,106.568 62.7678,107.901 62.5,109.5C 62.5,110.833 62.5,112.167 62.5,113.5C 40.1541,122.494 26.1541,138.494 20.5,161.5C 20.5319,166.674 20.5319,171.841 20.5,177C 21.0294,178.559 21.696,180.059 22.5,181.5C 21.9444,184.661 22.9444,187.494 25.5,190C 24.944,190.383 24.6107,190.883 24.5,191.5C 21.8333,191.5 19.1667,191.5 16.5,191.5C 16.7035,189.61 16.0368,188.11 14.5,187C 14.8333,186.667 15.1667,186.333 15.5,186C 13.8753,185.147 13.5419,184.147 14.5,183C 12.6499,181.155 12.3166,179.155 13.5,177C 10.8673,171.866 10.8673,166.699 13.5,161.5C 13.0688,160.707 12.7355,159.873 12.5,159C 14.8942,155.072 16.3942,150.572 17,145.5C 22.4166,135.27 29.5832,126.437 38.5,119C 46.1023,113.826 53.769,109.326 61.5,105.5 Z"/></g>
<g><path style="opacity:1" fill="#a19d06" d="M 125.5,102.5 C 130.745,103.081 135.578,104.748 140,107.5C 143.746,107.704 147.08,109.371 150,112.5C 150.333,112.167 150.667,111.833 151,111.5C 170.951,123.075 183.451,139.909 188.5,162C 188.46,166.839 188.46,171.672 188.5,176.5C 188.113,178.274 187.447,179.941 186.5,181.5C 186.709,182.086 187.043,182.586 187.5,183C 186.299,185.528 184.965,188.361 183.5,191.5C 180.833,191.5 178.167,191.5 175.5,191.5C 176.962,187.717 178.295,184.217 179.5,181C 179.355,180.228 179.022,179.561 178.5,179C 180.038,176.072 180.704,172.906 180.5,169.5C 180.186,159.601 177.519,150.101 172.5,141C 169.081,137.256 166.081,133.256 163.5,129C 159.03,126.192 154.863,123.025 151,119.5C 142.709,115.557 134.709,111.891 127,108.5C 126.505,110.473 126.338,112.473 126.5,114.5C 126.5,115.833 126.5,117.167 126.5,118.5C 126.167,118.5 125.833,118.5 125.5,118.5C 125.5,115.833 125.5,113.167 125.5,110.5C 125.5,107.833 125.5,105.167 125.5,102.5 Z"/></g>
<g><path style="opacity:1" fill="#89aa12" d="M 90.5,124.5 C 90.5,124.833 90.5,125.167 90.5,125.5C 88.5,125.833 86.5,126.167 84.5,126.5C 84.5,129.833 84.5,133.167 84.5,136.5C 84.5,138.167 84.5,139.833 84.5,141.5C 84.1667,141.5 83.8333,141.5 83.5,141.5C 83.5,137.833 83.5,134.167 83.5,130.5C 83.5,126.167 83.5,121.833 83.5,117.5C 85.4672,117.261 87.3005,117.594 89,118.5C 89.1909,120.708 89.6909,122.708 90.5,124.5 Z"/></g>
<g><path style="opacity:1" fill="#b6b307" d="M 63.5,129.5 C 51.183,137.785 43.0163,149.118 39,163.5C 38.3333,167.5 38.3333,171.5 39,175.5C 40.7468,178.21 41.7468,181.21 42,184.5C 43.5106,186.862 45.0106,189.195 46.5,191.5C 43.1667,191.5 39.8333,191.5 36.5,191.5C 36.03,188.255 34.6966,185.421 32.5,183C 32.9574,182.586 33.2907,182.086 33.5,181.5C 30.2382,175.261 29.9049,168.595 32.5,161.5C 31.8425,158 32.8425,154.833 35.5,152C 35.1667,151.667 34.8333,151.333 34.5,151C 41.3204,139.181 50.4871,129.681 62,122.5C 62.662,124.813 63.162,127.146 63.5,129.5 Z"/></g>
<g><path style="opacity:1" fill="#7c8102" d="M 108.5,113.5 C 109.461,115.265 109.795,117.265 109.5,119.5C 109.5,122.5 109.5,125.5 109.5,128.5C 109.737,129.791 109.404,130.791 108.5,131.5C 108.084,126.507 107.751,121.507 107.5,116.5C 108.404,115.791 108.737,114.791 108.5,113.5 Z"/></g>
<g><path style="opacity:1" fill="#beba09" d="M 127.5,126.5 C 147.642,133.492 159.308,147.659 162.5,169C 161.479,176.822 158.812,184.322 154.5,191.5C 152.5,191.5 150.5,191.5 148.5,191.5C 157.933,178.691 158.933,164.691 151.5,149.5C 144.414,141.468 136.414,134.468 127.5,128.5C 127.5,127.833 127.5,127.167 127.5,126.5 Z"/></g>
<g><path style="opacity:1" fill="#838300" d="M 125.5,118.5 C 125.833,118.5 126.167,118.5 126.5,118.5C 126.5,121.167 126.5,123.833 126.5,126.5C 126.666,134.174 126.5,141.841 126,149.5C 124.462,148.151 122.629,147.484 120.5,147.5C 120.5,146.167 120.5,144.833 120.5,143.5C 120.414,139.143 120.08,134.81 119.5,130.5C 122.366,127.622 124.199,128.289 125,132.5C 125.499,127.845 125.666,123.179 125.5,118.5 Z"/></g>
<g><path style="opacity:1" fill="#8daf13" d="M 109.5,119.5 C 111.5,119.5 113.5,119.5 115.5,119.5C 116.421,122.083 117.754,124.416 119.5,126.5C 119.5,127.833 119.5,129.167 119.5,130.5C 120.08,134.81 120.414,139.143 120.5,143.5C 119.566,140.344 118.899,137.011 118.5,133.5C 116.173,133.335 114.007,132.669 112,131.5C 111.617,132.056 111.117,132.389 110.5,132.5C 110.768,130.901 110.434,129.568 109.5,128.5C 109.5,125.5 109.5,122.5 109.5,119.5 Z"/></g>
<g><path style="opacity:1" fill="#beba09" d="M 63.5,129.5 C 63.5,130.5 63.5,131.5 63.5,132.5C 59.8304,135.812 55.9971,139.812 52,144.5C 49.6753,149.46 47.3419,154.46 45,159.5C 44.2797,161.112 44.4464,162.612 45.5,164C 42.8333,167.667 42.8333,171.333 45.5,175C 44.9781,175.561 44.6448,176.228 44.5,177C 46.0111,181.018 47.6778,185.018 49.5,189C 49.2568,189.902 48.9234,190.735 48.5,191.5C 47.8333,191.5 47.1667,191.5 46.5,191.5C 45.0106,189.195 43.5106,186.862 42,184.5C 41.7468,181.21 40.7468,178.21 39,175.5C 38.3333,171.5 38.3333,167.5 39,163.5C 43.0163,149.118 51.183,137.785 63.5,129.5 Z"/></g>
<g><path style="opacity:1" fill="#91b414" d="M 90.5,125.5 C 90.5,126.5 90.5,127.5 90.5,128.5C 91.1621,132.466 91.4955,136.466 91.5,140.5C 90.8386,139.282 90.1719,137.949 89.5,136.5C 87.8014,137.815 86.1347,137.815 84.5,136.5C 84.5,133.167 84.5,129.833 84.5,126.5C 86.5,126.167 88.5,125.833 90.5,125.5 Z"/></g>
<g><path style="opacity:1" fill="#c3bf09" d="M 127.5,128.5 C 136.414,134.468 144.414,141.468 151.5,149.5C 158.933,164.691 157.933,178.691 148.5,191.5C 147.167,191.5 145.833,191.5 144.5,191.5C 156.646,175.15 156.146,159.483 143,144.5C 139,141.167 135,137.833 131,134.5C 130.667,134.833 130.333,135.167 130,135.5C 129.066,134.142 128.232,132.808 127.5,131.5C 127.5,130.5 127.5,129.5 127.5,128.5 Z"/></g>
<g><path style="opacity:1" fill="#91b313" d="M 81.5,129.5 C 81.5045,133.534 81.8379,137.534 82.5,141.5C 81.7321,140.737 81.2321,139.737 81,138.5C 79.3005,139.406 77.4672,139.739 75.5,139.5C 73.7415,146.335 73.0748,153.335 73.5,160.5C 72.596,159.791 72.2627,158.791 72.5,157.5C 72.5,151.833 72.5,146.167 72.5,140.5C 72.3343,136.154 72.501,131.821 73,127.5C 74.3333,127.5 75.6667,127.5 77,127.5C 77.6667,126.833 78.3333,126.167 79,125.5C 79.9344,126.858 80.7677,128.192 81.5,129.5 Z"/></g>
<g><path style="opacity:1" fill="#838b03" d="M 81.5,114.5 C 81.8333,114.5 82.1667,114.5 82.5,114.5C 82.1786,120.026 82.5119,125.36 83.5,130.5C 83.5,134.167 83.5,137.833 83.5,141.5C 83.8016,144.059 83.4682,146.393 82.5,148.5C 82.5,147.5 82.5,146.5 82.5,145.5C 82.5,144.167 82.5,142.833 82.5,141.5C 81.8379,137.534 81.5045,133.534 81.5,129.5C 80.8379,125.534 80.5045,121.534 80.5,117.5C 81.404,116.791 81.7373,115.791 81.5,114.5 Z"/></g>
<g><path style="opacity:1" fill="#95b814" d="M 99.5,126.5 C 99.3375,131.547 99.6708,136.547 100.5,141.5C 98.7179,140.28 96.7179,139.614 94.5,139.5C 94.5,143.833 94.5,148.167 94.5,152.5C 94.1667,152.5 93.8333,152.5 93.5,152.5C 93.5,147.5 93.5,142.5 93.5,137.5C 93.5,133.5 93.5,129.5 93.5,125.5C 94.8221,125.67 95.9887,125.337 97,124.5C 97.4169,125.756 98.2502,126.423 99.5,126.5 Z"/></g>
<g><path style="opacity:1" fill="#96ba14" d="M 101.5,128.5 C 103.331,129.052 104.997,129.052 106.5,128.5C 107.172,129.949 107.839,131.282 108.5,132.5C 108.552,136.198 108.886,139.865 109.5,143.5C 107.984,142.1 106.317,140.767 104.5,139.5C 103.575,140.357 102.908,141.357 102.5,142.5C 102.167,142.5 101.833,142.5 101.5,142.5C 101.5,137.833 101.5,133.167 101.5,128.5 Z"/></g>
<g><path style="opacity:1" fill="#c8c408" d="M 127.5,131.5 C 128.232,132.808 129.066,134.142 130,135.5C 130.333,135.167 130.667,134.833 131,134.5C 135,137.833 139,141.167 143,144.5C 156.146,159.483 156.646,175.15 144.5,191.5C 142.167,191.5 139.833,191.5 137.5,191.5C 139.833,188.997 141.999,186.331 144,183.5C 144.881,180.07 146.048,176.737 147.5,173.5C 147.424,170.613 147.424,167.78 147.5,165C 146.575,160.152 144.575,155.818 141.5,152C 141.833,151.667 142.167,151.333 142.5,151C 138.868,148.37 135.535,145.37 132.5,142C 131.207,141.51 129.873,141.343 128.5,141.5C 127.521,138.375 127.187,135.042 127.5,131.5 Z"/></g>
<g><path style="opacity:1" fill="#c2bf09" d="M 63.5,132.5 C 63.5,133.833 63.5,135.167 63.5,136.5C 62.6981,137.952 62.1981,139.618 62,141.5C 50.5885,150.292 45.9218,161.625 48,175.5C 49.4038,181.295 52.2371,186.628 56.5,191.5C 53.8333,191.5 51.1667,191.5 48.5,191.5C 48.9234,190.735 49.2568,189.902 49.5,189C 47.6778,185.018 46.0111,181.018 44.5,177C 44.6448,176.228 44.9781,175.561 45.5,175C 42.8333,171.333 42.8333,167.667 45.5,164C 44.4464,162.612 44.2797,161.112 45,159.5C 47.3419,154.46 49.6753,149.46 52,144.5C 55.9971,139.812 59.8304,135.812 63.5,132.5 Z"/></g>
<g><path style="opacity:1" fill="#c8c408" d="M 63.5,136.5 C 63.8333,136.5 64.1667,136.5 64.5,136.5C 64.5,139.5 64.5,142.5 64.5,145.5C 59.4754,150.289 55.8088,156.122 53.5,163C 53.5,167.333 53.5,171.667 53.5,176C 55.1814,177.945 55.848,179.945 55.5,182C 57.5095,185.569 59.8428,188.736 62.5,191.5C 60.5,191.5 58.5,191.5 56.5,191.5C 52.2371,186.628 49.4038,181.295 48,175.5C 45.9218,161.625 50.5885,150.292 62,141.5C 62.1981,139.618 62.6981,137.952 63.5,136.5 Z"/></g>
<g><path style="opacity:1" fill="#848902" d="M 99.5,111.5 C 99.8333,111.5 100.167,111.5 100.5,111.5C 100.214,117.259 100.548,122.925 101.5,128.5C 101.5,133.167 101.5,137.833 101.5,142.5C 101.737,143.791 101.404,144.791 100.5,145.5C 100.5,144.167 100.5,142.833 100.5,141.5C 99.6708,136.547 99.3375,131.547 99.5,126.5C 99.0371,123.518 98.7038,120.518 98.5,117.5C 98.5,116.5 98.5,115.5 98.5,114.5C 99.404,113.791 99.7373,112.791 99.5,111.5 Z"/></g>
<g><path style="opacity:1" fill="#ceca09" d="M 128.5,141.5 C 129.873,141.343 131.207,141.51 132.5,142C 135.535,145.37 138.868,148.37 142.5,151C 142.167,151.333 141.833,151.667 141.5,152C 144.575,155.818 146.575,160.152 147.5,165C 147.424,167.78 147.424,170.613 147.5,173.5C 146.048,176.737 144.881,180.07 144,183.5C 141.999,186.331 139.833,188.997 137.5,191.5C 134.833,191.5 132.167,191.5 129.5,191.5C 132.472,189.359 134.972,186.692 137,183.5C 137.829,179.839 139.329,176.505 141.5,173.5C 142.33,162.705 137.996,153.372 128.5,145.5C 128.5,144.167 128.5,142.833 128.5,141.5 Z"/></g>
<g><path style="opacity:1" fill="#878800" d="M 70.5,125.5 C 71.1667,130.5 71.8333,135.5 72.5,140.5C 72.5,146.167 72.5,151.833 72.5,157.5C 71.0534,156.193 70.3867,154.859 70.5,153.5C 69.6667,154.5 68.8333,155.5 68,156.5C 67.8138,159.036 67.3138,161.369 66.5,163.5C 65.8333,157.5 65.1667,151.5 64.5,145.5C 64.5,142.5 64.5,139.5 64.5,136.5C 65.2216,136.918 65.7216,137.584 66,138.5C 66.4117,136.003 67.5784,134.003 69.5,132.5C 70.4742,130.257 70.8076,127.924 70.5,125.5 Z"/></g>
<g><path style="opacity:1" fill="#9bc015" d="M 120.5,143.5 C 120.5,144.833 120.5,146.167 120.5,147.5C 120.517,149.565 120.85,151.565 121.5,153.5C 121.806,156.385 121.473,159.052 120.5,161.5C 120.811,157.32 120.145,153.32 118.5,149.5C 116.677,148.253 114.677,147.586 112.5,147.5C 112.5,151.5 112.5,155.5 112.5,159.5C 111.558,150.67 110.892,141.67 110.5,132.5C 111.117,132.389 111.617,132.056 112,131.5C 114.007,132.669 116.173,133.335 118.5,133.5C 118.899,137.011 119.566,140.344 120.5,143.5 Z"/></g>
<g><path style="opacity:1" fill="#9dc316" d="M 84.5,136.5 C 86.1347,137.815 87.8014,137.815 89.5,136.5C 90.1719,137.949 90.8386,139.282 91.5,140.5C 91.7509,145.507 92.0843,150.507 92.5,155.5C 91.5386,153.735 91.2053,151.735 91.5,149.5C 89.54,150.138 87.7067,150.138 86,149.5C 85.51,150.793 85.3433,152.127 85.5,153.5C 84.5166,149.702 84.1832,145.702 84.5,141.5C 84.5,139.833 84.5,138.167 84.5,136.5 Z"/></g>
<g><path style="opacity:1" fill="#9bc115" d="M 82.5,141.5 C 82.5,142.833 82.5,144.167 82.5,145.5C 81.1904,149.494 78.6904,152.827 75,155.5C 74.502,158.482 74.3354,161.482 74.5,164.5C 73.5655,163.432 73.2322,162.099 73.5,160.5C 73.0748,153.335 73.7415,146.335 75.5,139.5C 77.4672,139.739 79.3005,139.406 81,138.5C 81.2321,139.737 81.7321,140.737 82.5,141.5 Z"/></g>
<g><path style="opacity:1" fill="#8e8e00" d="M 126.5,126.5 C 126.833,126.5 127.167,126.5 127.5,126.5C 127.5,127.167 127.5,127.833 127.5,128.5C 127.5,129.5 127.5,130.5 127.5,131.5C 127.187,135.042 127.521,138.375 128.5,141.5C 128.5,142.833 128.5,144.167 128.5,145.5C 129.333,157.492 129.5,169.492 129,181.5C 127.022,185.638 124.189,188.971 120.5,191.5C 104.833,191.5 89.1667,191.5 73.5,191.5C 71.3288,189.159 69.6621,186.493 68.5,183.5C 67.4373,176.873 66.7706,170.206 66.5,163.5C 67.3138,161.369 67.8138,159.036 68,156.5C 68.8333,155.5 69.6667,154.5 70.5,153.5C 70.3867,154.859 71.0534,156.193 72.5,157.5C 72.2627,158.791 72.596,159.791 73.5,160.5C 73.2322,162.099 73.5655,163.432 74.5,164.5C 74.5,164.833 74.5,165.167 74.5,165.5C 73.3027,171.52 74.6361,176.353 78.5,180C 77.273,181.587 77.6063,182.921 79.5,184C 81.8734,183.638 84.2068,184.305 86.5,186C 86.1667,186.333 85.8333,186.667 85.5,187C 101.244,192.966 114.578,189.799 125.5,177.5C 126.803,172.013 126.803,166.513 125.5,161C 125.333,160.5 125.167,160 125,159.5C 124.333,160.833 123.667,160.833 123,159.5C 122.809,157.292 122.309,155.292 121.5,153.5C 120.85,151.565 120.517,149.565 120.5,147.5C 122.629,147.484 124.462,148.151 126,149.5C 126.5,141.841 126.666,134.174 126.5,126.5 Z"/></g>
<g><path style="opacity:1" fill="#a0c716" d="M 109.5,143.5 C 109.833,148.833 110.167,154.167 110.5,159.5C 109.753,156.85 108.753,154.184 107.5,151.5C 106.197,152.718 105.197,152.385 104.5,150.5C 103.571,151.689 103.238,153.022 103.5,154.5C 102.517,150.702 102.183,146.702 102.5,142.5C 102.908,141.357 103.575,140.357 104.5,139.5C 106.317,140.767 107.984,142.1 109.5,143.5 Z"/></g>
<g><path style="opacity:1" fill="#939d05" d="M 109.5,128.5 C 110.434,129.568 110.768,130.901 110.5,132.5C 110.892,141.67 111.558,150.67 112.5,159.5C 112.5,161.5 112.5,163.5 112.5,165.5C 114.903,165.552 117.236,165.219 119.5,164.5C 118.713,166.104 117.38,166.771 115.5,166.5C 113.833,166.5 112.167,166.5 110.5,166.5C 110.5,164.167 110.5,161.833 110.5,159.5C 110.167,154.167 109.833,148.833 109.5,143.5C 108.886,139.865 108.552,136.198 108.5,132.5C 108.5,132.167 108.5,131.833 108.5,131.5C 109.404,130.791 109.737,129.791 109.5,128.5 Z"/></g>
<g><path style="opacity:1" fill="#d6d209" d="M 128.5,145.5 C 137.996,153.372 142.33,162.705 141.5,173.5C 139.329,176.505 137.829,179.839 137,183.5C 134.972,186.692 132.472,189.359 129.5,191.5C 126.5,191.5 123.5,191.5 120.5,191.5C 124.189,188.971 127.022,185.638 129,181.5C 129.5,169.492 129.333,157.492 128.5,145.5 Z"/></g>
<g><path style="opacity:1" fill="#a4cc16" d="M 100.5,141.5 C 100.5,142.833 100.5,144.167 100.5,145.5C 100.505,149.534 100.838,153.534 101.5,157.5C 99.8583,155.919 97.8583,155.253 95.5,155.5C 95.5,159.167 95.5,162.833 95.5,166.5C 97.5,166.5 99.5,166.5 101.5,166.5C 99.3926,167.468 97.0593,167.802 94.5,167.5C 94.5,166.5 94.5,165.5 94.5,164.5C 94.5,160.5 94.5,156.5 94.5,152.5C 94.5,148.167 94.5,143.833 94.5,139.5C 96.7179,139.614 98.7179,140.28 100.5,141.5 Z"/></g>
<g><path style="opacity:1" fill="#d0cc09" d="M 64.5,145.5 C 65.1667,151.5 65.8333,157.5 66.5,163.5C 66.7706,170.206 67.4373,176.873 68.5,183.5C 69.6621,186.493 71.3288,189.159 73.5,191.5C 69.8333,191.5 66.1667,191.5 62.5,191.5C 59.8428,188.736 57.5095,185.569 55.5,182C 55.848,179.945 55.1814,177.945 53.5,176C 53.5,171.667 53.5,167.333 53.5,163C 55.8088,156.122 59.4754,150.289 64.5,145.5 Z"/></g>
<g><path style="opacity:1" fill="#8e9603" d="M 91.5,121.5 C 92.1667,126.833 92.8333,132.167 93.5,137.5C 93.5,142.5 93.5,147.5 93.5,152.5C 93.7373,153.791 93.404,154.791 92.5,155.5C 92.0843,150.507 91.7509,145.507 91.5,140.5C 91.4955,136.466 91.1621,132.466 90.5,128.5C 91.4682,126.393 91.8016,124.059 91.5,121.5 Z"/></g>
<g><path style="opacity:1" fill="#a5cf18" d="M 120.5,161.5 C 120.443,162.609 120.11,163.609 119.5,164.5C 117.236,165.219 114.903,165.552 112.5,165.5C 112.5,163.5 112.5,161.5 112.5,159.5C 112.5,155.5 112.5,151.5 112.5,147.5C 114.677,147.586 116.677,148.253 118.5,149.5C 120.145,153.32 120.811,157.32 120.5,161.5 Z"/></g>
<g><path style="opacity:1" fill="#929200" d="M 121.5,153.5 C 122.309,155.292 122.809,157.292 123,159.5C 123.667,160.833 124.333,160.833 125,159.5C 125.167,160 125.333,160.5 125.5,161C 126.803,166.513 126.803,172.013 125.5,177.5C 114.578,189.799 101.244,192.966 85.5,187C 85.8333,186.667 86.1667,186.333 86.5,186C 84.2068,184.305 81.8734,183.638 79.5,184C 77.6063,182.921 77.273,181.587 78.5,180C 74.6361,176.353 73.3027,171.52 74.5,165.5C 75.922,166.925 77.5887,167.925 79.5,168.5C 81.2922,169.309 83.2922,169.809 85.5,170C 84.9781,170.561 84.6448,171.228 84.5,172C 85.9896,173.663 86.6563,175.33 86.5,177C 87.8544,178.294 89.1877,178.46 90.5,177.5C 92.2705,178.035 92.6039,178.869 91.5,180C 94.1586,181.579 96.9919,182.746 100,183.5C 105.804,181.791 110.971,178.958 115.5,175C 116.607,172.469 116.607,169.636 115.5,166.5C 117.38,166.771 118.713,166.104 119.5,164.5C 120.11,163.609 120.443,162.609 120.5,161.5C 121.473,159.052 121.806,156.385 121.5,153.5 Z"/></g>
<g><path style="opacity:1" fill="#b8b407" d="M 126.5,118.5 C 126.833,118.5 127.167,118.5 127.5,118.5C 127.33,119.822 127.663,120.989 128.5,122C 133.419,123.461 138.086,125.461 142.5,128C 144.918,131.047 147.918,133.38 151.5,135C 157.309,142.032 161.976,149.366 165.5,157C 166.022,159.186 166.022,161.519 165.5,164C 166.98,165.299 167.646,166.966 167.5,169C 166.7,173.932 165.533,179.099 164,184.5C 162.988,187.202 161.488,189.535 159.5,191.5C 157.833,191.5 156.167,191.5 154.5,191.5C 158.812,184.322 161.479,176.822 162.5,169C 159.308,147.659 147.642,133.492 127.5,126.5C 127.167,126.5 126.833,126.5 126.5,126.5C 126.5,123.833 126.5,121.167 126.5,118.5 Z"/></g>
<g><path style="opacity:1" fill="#a3cc17" d="M 82.5,145.5 C 82.5,146.5 82.5,147.5 82.5,148.5C 83.331,155.131 83.6643,161.798 83.5,168.5C 82.1667,168.5 80.8333,168.5 79.5,168.5C 77.5887,167.925 75.922,166.925 74.5,165.5C 74.5,165.167 74.5,164.833 74.5,164.5C 74.3354,161.482 74.502,158.482 75,155.5C 78.6904,152.827 81.1904,149.494 82.5,145.5 Z"/></g>
<g><path style="opacity:1" fill="#a9d418" d="M 92.5,155.5 C 92.2641,158.609 92.5975,161.609 93.5,164.5C 93.7373,165.791 93.404,166.791 92.5,167.5C 90.5,167.5 88.5,167.5 86.5,167.5C 85.6864,162.881 85.3531,158.214 85.5,153.5C 85.3433,152.127 85.51,150.793 86,149.5C 87.7067,150.138 89.54,150.138 91.5,149.5C 91.2053,151.735 91.5386,153.735 92.5,155.5 Z"/></g>
<g><path style="opacity:1" fill="#aad518" d="M 110.5,159.5 C 110.5,161.833 110.5,164.167 110.5,166.5C 108.167,166.5 105.833,166.5 103.5,166.5C 103.5,162.5 103.5,158.5 103.5,154.5C 103.238,153.022 103.571,151.689 104.5,150.5C 105.197,152.385 106.197,152.718 107.5,151.5C 108.753,154.184 109.753,156.85 110.5,159.5 Z"/></g>
<g><path style="opacity:1" fill="#99a807" d="M 83.5,141.5 C 83.8333,141.5 84.1667,141.5 84.5,141.5C 84.1832,145.702 84.5166,149.702 85.5,153.5C 85.3531,158.214 85.6864,162.881 86.5,167.5C 88.5,167.5 90.5,167.5 92.5,167.5C 89.7131,168.477 86.7131,168.81 83.5,168.5C 83.6643,161.798 83.331,155.131 82.5,148.5C 83.4682,146.393 83.8016,144.059 83.5,141.5 Z"/></g>
<g><path style="opacity:1" fill="#9ca805" d="M 93.5,152.5 C 93.8333,152.5 94.1667,152.5 94.5,152.5C 94.5,156.5 94.5,160.5 94.5,164.5C 94.1667,164.5 93.8333,164.5 93.5,164.5C 92.5975,161.609 92.2641,158.609 92.5,155.5C 93.404,154.791 93.7373,153.791 93.5,152.5 Z"/></g>
<g><path style="opacity:1" fill="#aedc1a" d="M 101.5,157.5 C 101.5,160.5 101.5,163.5 101.5,166.5C 99.5,166.5 97.5,166.5 95.5,166.5C 95.5,162.833 95.5,159.167 95.5,155.5C 97.8583,155.253 99.8583,155.919 101.5,157.5 Z"/></g>
<g><path style="opacity:1" fill="#989800" d="M 93.5,164.5 C 93.8333,164.5 94.1667,164.5 94.5,164.5C 94.5,165.5 94.5,166.5 94.5,167.5C 95.2625,168.268 96.2625,168.768 97.5,169C 96.6634,170.011 96.33,171.178 96.5,172.5C 98.968,173.75 101.301,173.583 103.5,172C 103.835,170.836 103.835,169.503 103.5,168C 106.036,167.814 108.369,167.314 110.5,166.5C 112.167,166.5 113.833,166.5 115.5,166.5C 116.607,169.636 116.607,172.469 115.5,175C 110.971,178.958 105.804,181.791 100,183.5C 96.9919,182.746 94.1586,181.579 91.5,180C 92.6039,178.869 92.2705,178.035 90.5,177.5C 89.1877,178.46 87.8544,178.294 86.5,177C 86.6563,175.33 85.9896,173.663 84.5,172C 84.6448,171.228 84.9781,170.561 85.5,170C 83.2922,169.809 81.2922,169.309 79.5,168.5C 80.8333,168.5 82.1667,168.5 83.5,168.5C 86.7131,168.81 89.7131,168.477 92.5,167.5C 93.404,166.791 93.7373,165.791 93.5,164.5 Z"/></g>
<g><path style="opacity:1" fill="#9ca202" d="M 101.5,142.5 C 101.833,142.5 102.167,142.5 102.5,142.5C 102.183,146.702 102.517,150.702 103.5,154.5C 103.5,158.5 103.5,162.5 103.5,166.5C 105.833,166.5 108.167,166.5 110.5,166.5C 108.369,167.314 106.036,167.814 103.5,168C 103.835,169.503 103.835,170.836 103.5,172C 101.301,173.583 98.968,173.75 96.5,172.5C 96.33,171.178 96.6634,170.011 97.5,169C 96.2625,168.768 95.2625,168.268 94.5,167.5C 97.0593,167.802 99.3926,167.468 101.5,166.5C 101.5,163.5 101.5,160.5 101.5,157.5C 100.838,153.534 100.505,149.534 100.5,145.5C 101.404,144.791 101.737,143.791 101.5,142.5 Z"/></g>
</svg>
