<?xml version="1.0" encoding="UTF-8"?>
<!DOCTYPE svg PUBLIC "-//W3C//DTD SVG 1.1//EN" "http://www.w3.org/Graphics/SVG/1.1/DTD/svg11.dtd">
<svg xmlns="http://www.w3.org/2000/svg" version="1.1" width="429px" height="200px" style="shape-rendering:geometricPrecision; text-rendering:geometricPrecision; image-rendering:optimizeQuality; fill-rule:evenodd; clip-rule:evenodd" xmlns:xlink="http://www.w3.org/1999/xlink">
<g><path style="opacity:1" fill="#fdfdfd" d="M -0.5,-0.5 C 142.5,-0.5 285.5,-0.5 428.5,-0.5C 428.5,66.1667 428.5,132.833 428.5,199.5C 285.5,199.5 142.5,199.5 -0.5,199.5C -0.5,132.833 -0.5,66.1667 -0.5,-0.5 Z"/></g>
<g><path style="opacity:1" fill="#060606" d="M 239.5,47.5 C 240.078,50.2804 240.745,52.9471 241.5,55.5C 243.214,79.8339 244.881,104.167 246.5,128.5C 250.662,127.758 254.662,126.424 258.5,124.5C 259.594,129.492 260.594,134.492 261.5,139.5C 252.73,143.09 243.73,146.09 234.5,148.5C 230.431,113.152 226.098,77.819 221.5,42.5C 223.5,42.8333 225.5,43.1667 227.5,43.5C 228.086,35.8137 228.919,28.147 230,20.5C 233.333,16.5 236.667,16.5 240,20.5C 243.088,18.7059 246.254,17.0392 249.5,15.5C 250.33,10.8195 252.996,8.65287 257.5,9C 253.097,13.451 254.097,16.1177 260.5,17C 259.833,17.6667 259.167,18.3333 258.5,19C 251.702,19.3131 245.535,21.4798 240,25.5C 239.561,31.8856 238.728,38.2189 237.5,44.5C 237.64,46.0296 238.307,47.0296 239.5,47.5 Z"/></g>
<g><path style="opacity:1" fill="#f9b04b" d="M 378.5,32.5 C 377.395,31.3995 376.062,30.7329 374.5,30.5C 369.191,17.2465 373.524,11.0798 387.5,12C 394.876,16.2675 396.376,22.1008 392,29.5C 388.087,33.3185 383.587,34.3185 378.5,32.5 Z"/></g>
<g><path style="opacity:1" fill="#070706" d="M 374.5,30.5 C 376.062,30.7329 377.395,31.3995 378.5,32.5C 376.192,35.8153 373.859,39.1486 371.5,42.5C 378.925,52.4618 379.425,62.7951 373,73.5C 365.859,80.6584 357.359,83.1584 347.5,81C 341.437,88.0587 335.77,95.3921 330.5,103C 334.002,111.838 338.169,120.338 343,128.5C 347.003,130.245 351.17,131.745 355.5,133C 366.87,142.028 368.536,152.694 360.5,165C 362.639,167.303 364.972,169.47 367.5,171.5C 366.833,172.833 365.833,173.833 364.5,174.5C 361.979,172.299 359.479,169.966 357,167.5C 345.932,173.991 336.265,172.325 328,162.5C 323.181,154.178 323.347,146.012 328.5,138C 326.59,132.858 324.756,127.691 323,122.5C 322.632,121.09 321.799,120.09 320.5,119.5C 318.21,122.494 316.376,125.827 315,129.5C 312.356,137.409 310.023,145.409 308,153.5C 304.883,155.284 301.55,156.617 298,157.5C 299.306,138.112 304.139,119.612 312.5,102C 303.757,84.2579 293.757,67.2579 282.5,51C 290.543,52.2898 298.543,54.1231 306.5,56.5C 311.97,65.1424 316.803,74.1424 321,83.5C 321.561,84.0219 322.228,84.3552 323,84.5C 326.658,79.8647 330.324,75.198 334,70.5C 329.126,55.1185 333.96,43.9518 348.5,37C 354.981,35.8848 361.147,36.7181 367,39.5C 369.364,36.3098 371.864,33.3098 374.5,30.5 Z"/></g>
<g><path style="opacity:1" fill="#73c44b" d="M 351.5,39.5 C 366.522,39.357 374.022,46.6904 374,61.5C 370.332,73.5941 362.165,78.4274 349.5,76C 337.775,69.8256 334.608,60.659 340,48.5C 343.045,44.4057 346.878,41.4057 351.5,39.5 Z"/></g>
<g><path style="opacity:1" fill="#030303" d="M 108.5,139.5 C 120.41,123.924 125.577,106.257 124,86.5C 123.434,84.2774 122.6,82.2774 121.5,80.5C 120.513,78.5266 119.513,76.5266 118.5,74.5C 121.852,63.9403 125.685,53.607 130,43.5C 139.091,45.766 148.258,47.766 157.5,49.5C 162.1,77.5305 166.933,105.531 172,133.5C 172.824,136.882 172.657,140.216 171.5,143.5C 167.197,144.878 163.03,146.544 159,148.5C 155.579,142.658 152.412,136.658 149.5,130.5C 144.198,129.337 138.864,129.171 133.5,130C 130.251,137.801 128.584,145.968 128.5,154.5C 120.537,156.049 112.537,157.383 104.5,158.5C 104.334,153.821 104.501,149.155 105,144.5C 106.176,142.804 107.343,141.138 108.5,139.5 Z"/></g>
<g><path style="opacity:1" fill="#d0dc3d" d="M 350.5,47.5 C 363.131,45.9601 368.298,51.2934 366,63.5C 365.215,65.286 364.049,66.786 362.5,68C 356.017,70.9119 350.517,69.7452 346,64.5C 343.066,57.5514 344.566,51.8847 350.5,47.5 Z"/></g>
<g><path style="opacity:1" fill="#686868" d="M 239.5,47.5 C 241.369,49.6353 242.036,52.3019 241.5,55.5C 240.745,52.9471 240.078,50.2804 239.5,47.5 Z"/></g>
<g><path style="opacity:1" fill="#020202" d="M 120.5,81.5 C 122.993,90.4245 123.16,99.4245 121,108.5C 117.358,118.941 112.858,128.941 107.5,138.5C 105.5,139.976 103.833,141.809 102.5,144C 99.4432,146.723 96.1099,149.056 92.5,151C 83.687,154.286 74.687,156.786 65.5,158.5C 60.4318,122.923 54.7651,87.4232 48.5,52C 48.8333,51.5 49.1667,51 49.5,50.5C 67.7744,53.825 85.7744,58.325 103.5,64C 110.741,68.4059 116.407,74.2392 120.5,81.5 Z"/></g>
<g><path style="opacity:1" fill="#050505" d="M 159.5,50.5 C 167.127,52.3232 174.794,53.9899 182.5,55.5C 183.052,67.5673 184.219,79.5673 186,91.5C 195.006,94.2239 204.173,96.2239 213.5,97.5C 214.347,85.5107 215.014,73.5107 215.5,61.5C 217.591,61.3184 219.591,61.6518 221.5,62.5C 223.585,78.1827 225.752,93.8493 228,109.5C 228.306,120.669 226.973,131.669 224,142.5C 222,143.167 220,143.833 218,144.5C 216.719,152.465 215.719,160.465 215,168.5C 214.215,170.286 213.049,171.786 211.5,173C 208.34,172.798 205.34,172.132 202.5,171C 197.701,172.129 194.534,174.962 193,179.5C 191.401,181.036 189.567,181.536 187.5,181C 190.593,176.9 189.593,174.066 184.5,172.5C 186.922,170.35 189.589,170.017 192.5,171.5C 196.327,169.754 199.993,167.754 203.5,165.5C 205.337,159.308 206.337,152.974 206.5,146.5C 205.167,146.5 203.833,146.5 202.5,146.5C 204.174,135.11 206.174,123.777 208.5,112.5C 201.537,109.929 194.204,108.263 186.5,107.5C 188.664,117.487 190.497,127.487 192,137.5C 186.599,139.467 181.099,141.133 175.5,142.5C 170.597,111.747 165.263,81.0799 159.5,50.5 Z"/></g>
<g><path style="opacity:1" fill="#040404" d="M 248.5,50.5 C 260.081,53.3164 271.747,55.8164 283.5,58C 287.768,62.6897 291.435,67.8564 294.5,73.5C 287.716,73.1338 281.049,71.4672 274.5,68.5C 274.167,68.8333 273.833,69.1667 273.5,69.5C 274.624,77.4411 275.29,85.4411 275.5,93.5C 282.531,95.3416 289.531,97.3416 296.5,99.5C 296.998,103.425 296.998,107.425 296.5,111.5C 289.833,110.167 283.167,108.833 276.5,107.5C 276.638,117.175 276.971,126.842 277.5,136.5C 284.532,136.17 291.532,136.503 298.5,137.5C 297.449,140.757 296.782,144.09 296.5,147.5C 286.721,149.695 277.054,152.362 267.5,155.5C 267.167,155 266.833,154.5 266.5,154C 260.172,119.535 254.172,85.0352 248.5,50.5 Z"/></g>
<g><path style="opacity:1" fill="#0c0c03" d="M 353.5,52.5 C 359.82,52.3196 362.32,55.3196 361,61.5C 357.952,65.0095 354.619,65.3428 351,62.5C 349.861,58.5789 350.695,55.2456 353.5,52.5 Z"/></g>
<g><path style="opacity:1" fill="#1c1c1c" d="M 314.5,66.5 C 317.992,64.7512 319.992,65.9179 320.5,70C 320.546,71.728 320.046,73.228 319,74.5C 317.726,71.6089 316.226,68.9422 314.5,66.5 Z"/></g>
<g><path style="opacity:1" fill="#dcdcdc" d="M 121.5,80.5 C 122.6,82.2774 123.434,84.2774 124,86.5C 125.577,106.257 120.41,123.924 108.5,139.5C 108.5,138.833 108.167,138.5 107.5,138.5C 112.858,128.941 117.358,118.941 121,108.5C 123.16,99.4245 122.993,90.4245 120.5,81.5C 120.5,80.8333 120.833,80.5 121.5,80.5 Z"/></g>
<g><path style="opacity:1" fill="#070604" d="M 48.5,92.5 C 50.5671,105.009 52.9004,117.342 55.5,129.5C 56.1587,132.455 56.4921,135.455 56.5,138.5C 49.6728,139.253 44.6728,136.586 41.5,130.5C 39.5021,119.173 37.5021,107.84 35.5,96.5C 35.7771,90.0561 38.9437,85.7228 45,83.5C 45.772,83.6448 46.4387,83.9781 47,84.5C 48.0793,87.0627 48.5793,89.7294 48.5,92.5 Z"/></g>
<g><path style="opacity:1" fill="#f5f4f2" d="M 80.5,84.5 C 89.3002,84.4513 94.8002,88.7847 97,97.5C 98.8546,106.616 96.0213,113.782 88.5,119C 79.6756,119.537 74.1756,115.37 72,106.5C 69.8529,97.09 72.6862,89.7567 80.5,84.5 Z"/></g>
<g><path style="opacity:1" fill="#f4f3f1" d="M 139.5,85.5 C 145.841,84.9984 150.341,87.665 153,93.5C 153.667,97.5 153.667,101.5 153,105.5C 148.255,114.651 142.255,115.651 135,108.5C 130.49,99.444 131.99,91.7774 139.5,85.5 Z"/></g>
<g><path style="opacity:1" fill="#fab14e" d="M 140.5,91.5 C 146.473,91.4734 149.473,94.4734 149.5,100.5C 149.135,106.369 146.135,108.536 140.5,107C 136.541,101.835 136.541,96.6681 140.5,91.5 Z"/></g>
<g><path style="opacity:1" fill="#fab14d" d="M 82.5,91.5 C 86.5257,91.6766 89.359,93.6766 91,97.5C 92.195,102.6 91.3617,107.267 88.5,111.5C 84.429,113.32 81.2624,112.32 79,108.5C 76.1965,101.831 77.3632,96.1643 82.5,91.5 Z"/></g>
<g><path style="opacity:1" fill="#efaa4a" d="M 48.5,92.5 C 50.1172,93.038 51.7839,93.3713 53.5,93.5C 54.6771,104.063 56.3437,114.563 58.5,125C 58.4779,127.183 57.4779,128.683 55.5,129.5C 52.9004,117.342 50.5671,105.009 48.5,92.5 Z"/></g>
<g><path style="opacity:1" fill="#f3ab49" d="M 35.5,96.5 C 37.5021,107.84 39.5021,119.173 41.5,130.5C 34.4055,128.566 30.2389,123.9 29,116.5C 26.9029,108.293 29.0696,101.626 35.5,96.5 Z"/></g>
<g><path style="opacity:1" fill="#72c34b" d="M 340.5,134.5 C 358.445,135.403 363.945,144.07 357,160.5C 345.947,169.622 336.947,167.956 330,155.5C 327.696,145.44 331.196,138.44 340.5,134.5 Z"/></g>
<g><path style="opacity:1" fill="#cfdc3d" d="M 341.5,140.5 C 351.666,140.818 355.5,145.818 353,155.5C 346.833,162.412 341.167,162.079 336,154.5C 334.025,148.177 335.858,143.51 341.5,140.5 Z"/></g>
<g><path style="opacity:1" fill="#111004" d="M 342.5,145.5 C 347.039,144.539 349.372,146.373 349.5,151C 348.841,155.082 346.508,156.416 342.5,155C 338.562,151.887 338.562,148.72 342.5,145.5 Z"/></g>
<g><path style="opacity:1" fill="#fab24f" d="M 364.5,174.5 C 365.833,173.833 366.833,172.833 367.5,171.5C 377.006,169.505 380.506,173.172 378,182.5C 374.547,185.769 370.714,186.269 366.5,184C 364.773,181.096 364.107,177.93 364.5,174.5 Z"/></g>
</svg>
